<?xml version="1.0" standalone="no"?>
<!DOCTYPE svg PUBLIC "-//W3C//DTD SVG 1.1//EN" "http://www.w3.org/Graphics/SVG/1.1/DTD/svg11.dtd" >
<svg xmlns="http://www.w3.org/2000/svg">
<metadata></metadata>
<defs>
<font id="futura_ltcondensedlightobl" horiz-adv-x="851" >
<font-face units-per-em="2048" ascent="1638" descent="-410" />
<missing-glyph horiz-adv-x="425" />
<glyph horiz-adv-x="0" />
<glyph unicode="&#xd;" horiz-adv-x="681" />
<glyph unicode=" "  horiz-adv-x="425" />
<glyph unicode="&#x09;" horiz-adv-x="425" />
<glyph unicode="&#xa0;" horiz-adv-x="425" />
<glyph unicode="!" horiz-adv-x="702" d="M261 88q7 43 43 74t79 31t68.5 -31t18.5 -74t-42 -73.5t-78 -30.5t-69.5 30.5t-19.5 73.5zM344 387l182 1157h138l-183 -1157h-137z" />
<glyph unicode="&#x22;" horiz-adv-x="632" d="M303 1081l55 463h154l-88 -463h-121zM555 1081l55 463h154l-88 -463h-121z" />
<glyph unicode="#" d="M72 0l211 510h-205l49 104h199l110 269h-203l48 104h196l219 537h99l-222 -537h144l219 537h96l-219 -537h197l-47 -104h-189l-110 -269h192l-49 -104h-186l-207 -510h-103l211 510h-143l-211 -510h-96zM422 614h143l111 269h-141z" />
<glyph unicode="$" d="M104 133l105 100q111 -102 213 -102q113 0 192.5 80t98.5 190q4 27 5 50.5t-4 44t-10.5 38t-16.5 35t-20.5 30.5t-27.5 28.5t-29.5 26t-34 24.5t-36 23.5t-37.5 23.5q-72 45 -117 82t-86 89t-54.5 117.5t1.5 145.5q23 150 116 252t244 129l29 180h100l-28 -176 q135 -8 243 -92l-90 -109q-102 70 -201 70q-109 0 -182.5 -67.5t-89.5 -174.5q-4 -27 -5 -51t4 -45.5t10 -40t17.5 -36t22.5 -31t28.5 -29.5t31 -25.5t35 -25t35 -23.5t38.5 -22q14 -10 23 -15q61 -39 98 -68.5t77 -79.5t52 -118.5t-2 -157.5q-23 -150 -130.5 -262 t-258.5 -137l-31 -197h-100l30 193q-166 23 -258 133z" />
<glyph unicode="%" horiz-adv-x="1067" d="M166 0l915 1544h66l-911 -1544h-70zM217 952.5q-2 30.5 2 75.5t7 72.5t10 68.5q8 49 15 81t20.5 85.5t30.5 88t43 69.5t61.5 53.5t80.5 18.5q39 0 67 -15.5t43 -37t23.5 -58.5t10.5 -67.5t-1 -75.5t-6 -73t-12 -69q-6 -49 -13 -80.5t-20.5 -85t-31 -88t-43 -69.5 t-62 -53.5t-80.5 -18.5q-39 0 -66.5 15.5t-43.5 37t-24.5 58.5t-10.5 67.5zM322.5 1169.5q-50.5 -317.5 52 -317.5t153 317.5t-52 317.5t-153 -317.5zM680 157.5q-2 30.5 1 76t7 73t10 68.5q8 49 14.5 80.5t19.5 85t31.5 88.5t43 69.5t61.5 53t82 18.5q37 0 64.5 -15.5 t44 -37t25 -58t10.5 -67.5t-1 -76t-7.5 -72.5t-10.5 -68.5q-8 -49 -14 -81t-19.5 -85t-32 -88t-43 -70t-61.5 -53t-82 -18q-37 0 -64.5 15t-44 36.5t-24.5 58.5t-10 67.5zM784.5 374.5q-51.5 -317.5 51 -317.5t153.5 317.5t-51 317.5t-153.5 -317.5z" />
<glyph unicode="&#x26;" horiz-adv-x="1083" d="M211 406q39 242 297 436l-4 12q-29 74 -45.5 123t-27.5 124t-1 136q20 129 122.5 218t223.5 89q127 0 193.5 -83t44.5 -214q-8 -61 -40 -120.5t-84 -115t-95 -94t-107 -88.5l-14 -10l186 -512l115 119l12 14l82 -94l-162 -158l66 -188h-150l-32 84q-129 -104 -275 -104 q-168 0 -250 126.5t-55 299.5zM348 403q-16 -109 32 -197.5t150 -96.5q113 4 224 92l-201 518q-180 -162 -205 -316zM562 1184.5q-1 -25.5 3 -53t9.5 -47t14.5 -49t14.5 -45t17.5 -46.5l6 -14q94 66 165.5 151.5t86.5 173.5q10 66 -24 113t-95 47q-74 0 -127 -51t-66 -129 q-4 -25 -5 -50.5z" />
<glyph unicode="'" horiz-adv-x="458" d="M340 1081l55 463h154l-88 -463h-121z" />
<glyph unicode="(" horiz-adv-x="614" d="M309 692q57 444 387 873l97 -43q-315 -403 -369 -830q-80 -426 104 -829l-108 -43q-195 424 -111 872z" />
<glyph unicode=")" horiz-adv-x="614" d="M41 -137q315 403 371 829q78 426 -107 830l109 43q195 -428 112 -873q-59 -448 -389 -872z" />
<glyph unicode="*" horiz-adv-x="849" d="M262 1253l39 78l279 -96l47 309h82l-47 -309l309 96l14 -78l-311 -96l143 -250l-76 -49l-141 250l-221 -250l-60 49l222 250z" />
<glyph unicode="+" horiz-adv-x="909" d="M119 473l16 105h361l69 448h105l-70 -448h361l-17 -105h-360l-72 -450h-104l71 450h-360z" />
<glyph unicode="," horiz-adv-x="425" d="M-4 -283l233 476l136 -66l-279 -457z" />
<glyph unicode="-" horiz-adv-x="319" d="M90 573l27 162h319l-26 -162h-320z" />
<glyph unicode="." horiz-adv-x="425" d="M122 88q7 43 43 74t79 31t68.5 -31t18.5 -74t-42 -73.5t-78 -30.5t-69.5 30.5t-19.5 73.5z" />
<glyph unicode="/" horiz-adv-x="950" d="M-106 -442l1232 2080h123l-1231 -2080h-124z" />
<glyph unicode="0" d="M163 331.5q-3 63.5 4 152.5t14 147.5t20.5 140.5t24 140.5t32 147.5t45 152.5t60 134t79.5 114.5t102.5 74t129 30t120 -30t79 -74t43 -114.5t18.5 -134t-3 -152.5t-15.5 -147.5t-21.5 -140.5t-23.5 -140.5t-32 -147.5t-44 -152.5t-60.5 -134t-80 -114.5t-102 -73.5 t-130 -29.5t-120 29.5t-78.5 73.5t-43 114.5t-17.5 134zM302 338q1 -55 10.5 -92t24.5 -70t43 -49t64 -16q41 0 77 23.5t62.5 58t51 92t41 109.5t33 126t25.5 126t22 126q10 63 16 109.5t13.5 111t9.5 111.5t1 102.5t-11.5 92t-26 69.5t-42 49.5t-63.5 16.5q-41 0 -77.5 -24 t-63.5 -58.5t-51.5 -92t-41 -109.5t-32.5 -126t-25.5 -126t-19.5 -126q-10 -63 -16.5 -109.5t-14.5 -111t-9 -111.5t0 -102z" />
<glyph unicode="1" d="M379 0l223 1409h-203l52 135h311l-244 -1544h-139z" />
<glyph unicode="2" d="M86 0l408 631q8 14 49 75.5t55 85t49 80t51.5 91t39 83t34.5 91.5t19 84q14 90 -16 151.5t-120 61.5q-178 0 -223 -279l-4 -33h-139q70 442 379 443q156 0 221 -98.5t41 -256.5q-12 -78 -42 -156.5t-85 -175t-85 -142.5t-104 -156l-295 -453h420l-20 -127h-633z" />
<glyph unicode="3" d="M156 356l12 68h137l-8 -45q-6 -66 -5 -126t38 -101t110 -41q47 0 86 23.5t61.5 57t41 84t27 86t14.5 82.5q27 166 -23.5 252t-210.5 84h-41l21 131h24q166 0 234.5 58.5t95.5 230.5q37 233 -127 234q-53 0 -90 -21.5t-58.5 -61.5t-31.5 -77t-19 -90h-139q12 98 52 181 t118 141.5t180 58.5q158 0 219.5 -96.5t36.5 -256.5q-45 -281 -233 -358q184 -76 127 -434q-70 -440 -383 -440q-170 0 -232.5 100t-33.5 276z" />
<glyph unicode="4" d="M152 416l22 145l569 983h136l-158 -1005h115l-21 -123h-115l-65 -416h-139l65 416h-409zM307 539h275l73 469l70 309h-6z" />
<glyph unicode="5" d="M123 68l61 141q106 -90 209 -90q63 0 114.5 33.5t84.5 89t52.5 111t27.5 112.5q12 61 7 122.5t-23.5 109.5t-66.5 79t-120 31q-102 0 -213 -62l221 799h459l-18 -127h-345l-133 -479l92 8q94 0 159 -44t91.5 -114.5t35.5 -156.5t-7 -168q-14 -90 -47 -172t-84 -153.5 t-130 -114.5t-175 -43q-152 0 -252 88z" />
<glyph unicode="6" d="M164 265q-6 81 10 163q41 258 225 580l308 536h149l-416 -719l4 -4q80 55 162 56q63 0 109.5 -32t68 -79t30.5 -111.5t7 -121t-12 -113.5q-70 -440 -375 -440q-94 0 -155.5 38.5t-85 102t-29.5 144.5zM305 333q0 -48 9.5 -102.5t45 -87t95.5 -32.5q39 0 70.5 16t54 46 t39 60.5t27.5 73.5t16.5 69.5t11.5 63.5q8 53 9 100.5t-8 98.5t-43 82t-89 31q-53 0 -96.5 -32t-69 -85t-40 -101.5t-22.5 -99.5q-10 -53 -10 -101z" />
<glyph unicode="7" d="M125 0l661 1417h-444l18 127h635l-719 -1544h-151z" />
<glyph unicode="8" d="M158 256q-8 76 8 154q57 369 264 444q-145 94 -106 334q25 160 119 268.5t247 108.5q100 0 160.5 -54.5t76 -134.5t1.5 -178q-20 -121 -68.5 -205t-148.5 -139q160 -90 108 -416q-14 -88 -41.5 -164.5t-74 -145.5t-120 -108.5t-167.5 -39.5q-86 0 -144.5 38.5t-82 100 t-31.5 137.5zM300 336q-1 -49 7 -104.5t43 -88t92 -32.5q186 0 240 342q8 55 10 104t-6 106.5t-42 92.5t-91 35q-59 0 -105.5 -36t-73 -95.5t-42 -110.5t-23.5 -109q-8 -55 -9 -104zM465 1196q-45 -274 117 -274q49 0 87 23.5t60.5 65.5t35.5 82t19 85q6 57 6.5 114.5 t-32.5 99.5t-99 42q-47 0 -82.5 -21.5t-58 -59.5t-35 -76t-18.5 -81z" />
<glyph unicode="9" d="M238 0l415 719l-4 4q-78 -53 -160 -53q-61 0 -105 25.5t-65.5 69.5t-34 91t-11.5 103.5t3.5 94.5t8.5 72q37 225 136 332t238 107q94 0 157 -39t85.5 -102.5t29.5 -144.5t-11 -163q-39 -248 -224 -579l-309 -537h-149zM412 1005.5q0 -47.5 8 -98.5t42 -81.5t89 -30.5 t98 31.5t68.5 84t40 100.5t22.5 99t8 100.5t-9 103.5t-45 87t-93 33q-39 0 -71.5 -15.5t-55 -45.5t-38 -59.5t-27 -72.5t-17.5 -69.5t-10 -65.5q-10 -53 -10 -100.5z" />
<glyph unicode=":" horiz-adv-x="425" d="M122 88q7 43 43 74t79 31t68.5 -31t18.5 -74t-42 -73.5t-78 -30.5t-69.5 30.5t-19.5 73.5zM261 963q7 43 43 73.5t79 30.5t68.5 -30.5t18.5 -73.5t-43 -74t-79 -31t-68.5 31t-18.5 74z" />
<glyph unicode=";" horiz-adv-x="425" d="M-27 -283l234 476l135 -66l-279 -457zM263 963q7 43 43 73.5t79 30.5t68.5 -30.5t18.5 -73.5t-43 -74t-79 -31t-68.5 31t-18.5 74z" />
<glyph unicode="&#x3c;" horiz-adv-x="909" d="M119 479l14 90l901 480l-18 -115l-778 -399v-11l649 -411l-19 -115z" />
<glyph unicode="=" horiz-adv-x="909" d="M88 291l18 104h826l-19 -104h-825zM147 655l17 105h825l-16 -105h-826z" />
<glyph unicode="&#x3e;" horiz-adv-x="909" d="M43 -2l18 115l779 399v10l-650 412l19 115l749 -482l-14 -90z" />
<glyph unicode="?" horiz-adv-x="892" d="M288 88q7 43 43 74t79 31t68.5 -31t18 -74t-42 -73.5t-77.5 -30.5t-69.5 30.5t-19.5 73.5zM369 387l77 498h46q53 0 83.5 3t60.5 14t45 29.5t31.5 56.5t27 86t22.5 124q6 45 9 72.5t2 63.5t-10 56.5t-30.5 35t-56.5 14.5q-43 0 -75 -21.5t-49 -61.5t-25.5 -72t-16.5 -77 l-8 -55h-133l8 55q14 84 32.5 141.5t53.5 110.5t94 79t145 26q78 0 126.5 -29t64.5 -77t19 -109.5t-11 -128.5q-8 -57 -14 -89t-19.5 -88.5t-29 -88t-41 -73.5t-57 -65.5t-78 -40t-101.5 -16.5l-59 -373h-133z" />
<glyph unicode="@" horiz-adv-x="1638" d="M164 780q35 213 174 394.5t346 286t428 104.5q145 0 271 -49.5t213 -135.5t128 -211t19 -266q-14 -92 -68.5 -196.5t-133.5 -194.5t-185.5 -149.5t-212.5 -59.5q-63 0 -107.5 27.5t-38.5 81.5q-131 -109 -299 -109q-133 0 -193.5 90t-37.5 228q16 106 71.5 215.5 t134.5 201.5t188.5 150.5t221.5 58.5q82 0 143 -36.5t81 -104.5l45 100h114l-317 -633q-2 -4 -4 -10q-12 -25 -18.5 -38t-15.5 -35.5t-8 -36t6 -27.5t23.5 -21.5t49.5 -7.5q86 0 188.5 87t176 210t89.5 230q27 158 -45.5 282.5t-206 187t-294.5 62.5q-193 0 -372 -96 t-299 -256t-149 -340q-37 -180 34 -336t223.5 -248t349.5 -92q168 0 340 77t296 206h111q-131 -180 -341 -285.5t-425 -105.5q-242 0 -416 107.5t-247.5 289.5t-30.5 403zM582 635q-16 -109 32 -172.5t131 -63.5q96 0 176 52.5t117 117.5l162 322q49 96 10 177t-143 81 q-109 0 -219.5 -89t-180 -207t-85.5 -218z" />
<glyph unicode="A" horiz-adv-x="747" d="M0 0l547 1544h135l66 -1544h-154l-6 317h-328l-106 -317h-154zM303 442h281l-9 592q0 31 11 316h-8q-10 -37 -41 -146.5t-50 -169.5z" />
<glyph unicode="B" horiz-adv-x="815" d="M123 0l244 1544h200q45 0 76 -2t66.5 -7t60.5 -17.5t50.5 -31t38.5 -47t23 -67.5q9 -35 8 -82v-10q-1 -53 -11 -119q-20 -131 -71.5 -218t-166.5 -144q82 -29 124 -87q42 -56 44 -128v-21q0 -63 -10 -139q-39 -240 -146.5 -332t-343.5 -92h-186zM287 123h39 q160 0 228.5 62.5t94.5 228.5q10 65 10 116q-1 94 -35 140q-54 70 -198 69h-43zM403 862h39h21h47t45 5t45 15.5t39 32t37 52t28.5 77t24.5 107.5q11 68 11 114v8q-1 48 -11 78.5t-38.5 45t-64 19.5t-96.5 5h-38z" />
<glyph unicode="C" horiz-adv-x="751" d="M169 410v25q0 73 5 135q6 72 16 147q12 74 22.5 127t34 148t50.5 165t72 152t97 133t128 87t162 36q117 0 174 -49l-25 -158q-87 67 -168 67h-2q-72 0 -131 -41t-99 -103t-73 -153.5t-50 -172.5t-34 -179q-8 -49 -12 -80.5t-11.5 -96t-7.5 -111t2.5 -108t16.5 -103 t35.5 -80.5t59.5 -58.5t87 -19.5h3q91 0 200 69l-25 -145q-100 -63 -207 -63q-86 0 -149.5 35.5t-97 98t-53 135.5t-20.5 161z" />
<glyph unicode="D" horiz-adv-x="843" d="M123 0l244 1544h155q57 0 95 -2t84.5 -10t74 -24.5t59 -44t47 -67.5t29 -97.5t13.5 -132t-8.5 -174t-26.5 -220.5q-37 -233 -81 -376.5t-113.5 -234.5t-165 -126t-240.5 -35h-166zM287 131h41q82 0 142 25.5t102 69.5t73 129t51.5 177.5t44.5 239.5q27 166 35 272 q4 56 4 104q0 42 -3 78q-7 77 -41 115.5t-85 55t-137 16.5h-25z" />
<glyph unicode="E" horiz-adv-x="692" d="M123 0l244 1544h485l-21 -131h-342l-86 -545h332l-20 -131h-332l-96 -606h342l-21 -131h-485z" />
<glyph unicode="F" horiz-adv-x="702" d="M123 0l244 1544h493l-20 -131h-351l-86 -545h332l-20 -131h-332l-117 -737h-143z" />
<glyph unicode="G" horiz-adv-x="843" d="M159 276q-2 29 -2 64q0 42 3 92q6 92 17 176t30 201q18 125 40.5 221t61.5 200.5t89.5 174.5t127 115t170.5 45q248 0 271 -291l-152 -55q-4 206 -134 206h-1q-51 0 -94 -25.5t-75 -72.5t-56.5 -100t-44 -129t-30.5 -136.5t-24 -140.5q-45 -281 -45 -436.5t37 -210.5 t117 -55q115 0 160 91t88 357l18 117h-209l21 131h352l-45 -285q-10 -63 -18.5 -107t-26 -106.5t-36.5 -105.5t-51 -90t-71 -76t-94 -47t-123 -18t-118 21.5t-81.5 56t-49 95t-22.5 123.5z" />
<glyph unicode="H" horiz-adv-x="886" d="M123 0l244 1544h143l-96 -616h354l96 616h144l-244 -1544h-143l127 797h-355l-127 -797h-143z" />
<glyph unicode="I" horiz-adv-x="389" d="M123 0l244 1544h143l-244 -1544h-143z" />
<glyph unicode="J" horiz-adv-x="536" d="M27 18l24 150q63 -68 131 -68q61 0 89 43t40 119l203 1282h143l-198 -1255q-10 -68 -19.5 -108t-28 -84t-46 -65.5t-71.5 -36.5t-106 -15q-86 0 -161 38z" />
<glyph unicode="K" horiz-adv-x="755" d="M123 0l244 1544h143l-111 -700h4l418 700h160l-461 -735l219 -809h-161l-185 778h-4l-123 -778h-143z" />
<glyph unicode="L" horiz-adv-x="602" d="M123 0l244 1544h143l-223 -1413h336l-21 -131h-479z" />
<glyph unicode="M" horiz-adv-x="1150" d="M47 0l461 1544h123l-8 -1151l-5 -153h7q8 31 21 84t25.5 98t24.5 84l340 1038h123l-55 -1544h-141l71 1139q4 51 15 145h-9q-4 -18 -32.5 -132t-49.5 -173l-323 -979h-117l10 1139q0 6 4 145h-6q-6 -29 -17 -94.5t-21.5 -115.5t-22.5 -93l-279 -981h-139z" />
<glyph unicode="N" horiz-adv-x="890" d="M123 0l244 1544h125l184 -1073q10 -53 22 -160h7q2 16 7 91t11 114l162 1028h125l-244 -1544h-125l-184 1038q-6 37 -12.5 110t-8.5 89h-8q-27 -268 -31 -299l-149 -938h-125z" />
<glyph unicode="O" horiz-adv-x="913" d="M167 459q3 84 11 155.5t23 157.5q20 131 43.5 234.5t65.5 212t93.5 181.5t129.5 119t172 46q72 0 126 -27t85.5 -70t50 -109.5t23.5 -130.5q3 -36 2 -79q0 -34 -1 -72q-4 -86 -12 -153.5t-21 -151.5q-12 -76 -23 -136.5t-33.5 -146.5t-48.5 -151.5t-65.5 -136t-86 -116.5 t-110 -75.5t-138.5 -29.5q-70 0 -123.5 25.5t-85 67.5t-50 105.5t-24.5 129.5q-4 44 -4 97q0 26 1 54zM310 444v-24q0 -37 2 -76q3 -53 14.5 -91t30 -69.5t48 -48t70.5 -16.5q47 0 87 22.5t68.5 58.5t55.5 92t44.5 107.5t33.5 125t25.5 124.5t21.5 123q8 61 15.5 106.5 t13.5 110t7 111.5v32q0 33 -1 68q-2 53 -14.5 91t-30 70t-48 48t-71.5 16h-8q-41 1 -77 -19q-40 -22 -69.5 -56.5t-55.5 -92t-43 -109.5t-34.5 -126t-27 -126t-19.5 -124q-10 -61 -16 -106t-13.5 -109.5t-8.5 -112.5z" />
<glyph unicode="P" horiz-adv-x="733" d="M123 0l244 1544h159q49 0 83 -2t75 -7t68.5 -17.5t57.5 -32t45 -49t26.5 -70.5t11.5 -97.5t-12 -125.5q-35 -223 -137.5 -313.5t-323.5 -90.5h-37l-117 -739h-143zM403 870h56q76 0 123 13.5t76.5 49.5t45 82t29.5 128q10 60 10 105q0 75 -28 110q-45 55 -197 55h-29z " />
<glyph unicode="Q" horiz-adv-x="913" d="M167 446q3 140 34 326q63 401 182 597t317 196q76 0 132.5 -31t88 -78t49 -118.5t21.5 -137.5q2 -29 2 -62q0 -41 -3 -88q-5 -85 -12 -140.5t-17 -125.5q-74 -455 -209 -651l84 -174l-123 -74l-72 146q-70 -51 -192 -51q-68 0 -118 21.5t-90 75.5t-59 142q-15 76 -15 190 v37zM311 447q-1 -29 -1 -56q0 -90 16 -145q20 -72 56 -99.5t93 -27.5q64 0 105 31l-99 212l125 74l80 -166q74 180 123 490q10 66 16 114t14.5 113.5t8.5 113.5t-2 102t-14.5 91t-30 69t-48 47t-71.5 15q-82 0 -139.5 -54t-106.5 -198.5t-88 -400.5q-31 -195 -37 -325z" />
<glyph unicode="R" horiz-adv-x="780" d="M123 0l244 1544h153q43 0 72 -1t67.5 -5t64.5 -12t55.5 -21.5t47 -34t35 -50t23.5 -67.5t6 -89.5t-10 -112.5q-12 -82 -34 -145.5t-60.5 -123t-104.5 -93t-156 -35.5l224 -754h-152l-209 756h-4l-119 -756h-143zM403 872h52q145 0 198.5 56.5t79.5 216.5q8 61 9 104v8 q0 38 -8 65q-9 30 -24.5 48.5t-46 27.5t-62.5 12t-83 3h-29z" />
<glyph unicode="S" horiz-adv-x="796" d="M113 57l30 187q98 -125 230 -125q109 0 184.5 81t91.5 191q5 31 5 59q0 26 -4 50q-9 50 -43 92.5t-60.5 67t-79.5 65.5q-16 12 -25 18q-23 18 -38 30.5t-36.5 32t-36 36t-30.5 38t-26.5 43t-19.5 48t-13 54.5t-3 60.5t5 69.5q27 166 142.5 288t277.5 122q125 0 231 -82 l-29 -183q-45 59 -93 92t-116 33q-102 0 -173.5 -72.5t-88.5 -176.5q-4 -27 -5 -51.5t5 -47t9.5 -40t17.5 -39t21.5 -34t28 -33t28.5 -27.5t34.5 -28.5t32.5 -26.5t37 -28q55 -43 86 -73.5t67 -81t46 -111.5q5 -28 4 -59q0 -37 -6 -78q-27 -178 -155 -308t-302 -130 q-141 0 -231 77z" />
<glyph unicode="T" horiz-adv-x="636" d="M240 1413l20 131h606l-20 -131h-232l-223 -1413h-143l223 1413h-231z" />
<glyph unicode="U" horiz-adv-x="880" d="M170 268q2 60 7 106t18 115l165 1055h144l-166 -1046q-12 -86 -18 -138q-5 -40 -5 -81v-24q2 -52 17.5 -77.5t46.5 -42t80 -16.5q115 0 161 83t78 296l166 1046h144l-166 -1055q-16 -100 -30.5 -164.5t-44.5 -136t-71 -112.5t-106.5 -68.5t-153.5 -27.5q-63 0 -111.5 14 t-79 36.5t-48 63.5t-23.5 78q-4 28 -4 68v28z" />
<glyph unicode="V" horiz-adv-x="796" d="M266 1544h148l24 -1124l-8 -209h8q45 182 54 209l378 1124h146l-555 -1544h-127z" />
<glyph unicode="W" horiz-adv-x="1239" d="M281 1544h147l-25 -1032q-2 -33 -4 -72t-5 -85t-3 -72h8q8 27 30 106.5t36 122.5l340 1032h123l-15 -1032q-2 -37 -4 -115t-2 -114h8q51 195 64 229l321 1032h146l-516 -1544h-131l8 1040q2 25 5 67t9 99.5t8 85.5h-8q-6 -27 -29.5 -125t-33.5 -127l-344 -1040h-131z" />
<glyph unicode="X" horiz-adv-x="823" d="M47 0l418 784l-174 760h153l105 -653h8q37 117 125 287l186 366h154l-408 -760l164 -784h-153l-105 657h-8q-18 -61 -109 -247l-202 -410h-154z" />
<glyph unicode="Y" horiz-adv-x="802" d="M283 1544h153l72 -520q4 -27 12 -97.5t15 -109.5h8q70 193 80 215l231 512h154l-420 -868l-107 -676h-143l106 676z" />
<glyph unicode="Z" horiz-adv-x="686" d="M39 0l651 1413h-387l21 131h567l-655 -1413h389l-21 -131h-565z" />
<glyph unicode="[" horiz-adv-x="614" d="M225 -238l281 1782h334l-13 -86h-219l-256 -1610h219l-12 -86h-334z" />
<glyph unicode="\" horiz-adv-x="454" d="M4 1638h123l573 -2080h-125z" />
<glyph unicode="]" horiz-adv-x="614" d="M-18 -238l12 86h219l256 1610h-219l12 86h334l-281 -1782h-333z" />
<glyph unicode="^" horiz-adv-x="909" d="M246 705l409 839h84l144 -839h-97l-112 686h-4l-328 -686h-96z" />
<glyph unicode="_" horiz-adv-x="1024" d="M-41 -256l16 102h1024l-16 -102h-1024z" />
<glyph unicode="`" horiz-adv-x="573" d="M322 1438l124 98l179 -276l-74 -62z" />
<glyph unicode="a" horiz-adv-x="714" d="M117 257q2 110 30 280q8 63 16.5 104t24 102.5t32 101.5t43 86t57 72.5t75.5 45t99 18.5q98 0 147 -88h4l10 72h133l-165 -1051h-134l13 82h-4q-80 -98 -189 -98q-68 0 -107.5 22.5t-63.5 81.5q-22 54 -21 152v17zM259 199q5 -47 23.5 -72t35 -30t44.5 -5 q94 0 139.5 96.5t86.5 354.5q14 97 20 163q3 36 3 71q0 29 -2 57q-5 62 -30.5 93t-72.5 31q-43 0 -77 -27.5t-56.5 -64.5t-41 -98t-27.5 -108.5t-19 -112.5q-19 -125 -25 -213q-4 -50 -3 -86q0 -29 2 -49z" />
<glyph unicode="b" horiz-adv-x="714" d="M92 0l260 1638h133l-104 -659h4q72 88 178 88q57 0 99.5 -21.5t62.5 -64.5q21 -43 31 -89q9 -39 8 -92v-22q-2 -68 -8 -119t-17 -122q-16 -94 -30.5 -162t-41 -146.5t-60.5 -128t-87 -83t-119 -33.5q-111 0 -159 98h-4l-13 -82h-133zM270 254q0 -39 8.5 -64.5t19.5 -49 t32.5 -36t50.5 -12.5q84 0 132 95.5t89 359.5q16 99 22 167q2 29 2 56q0 38 -4 72q-8 60 -34.5 88t-75.5 28q-35 0 -65.5 -19t-52 -56t-36 -72t-27 -87t-16.5 -79t-10 -67q-4 -16 -4 -23q-2 -10 -6 -33q-6 -37 -9 -59.5t-9.5 -66.5t-6.5 -73.5v-68.5z" />
<glyph unicode="c" horiz-adv-x="569" d="M129 380q2 64 12 124q10 70 26.5 136.5t49.5 147t75 140t105.5 99.5t141.5 40t137 -41l-25 -154q-53 70 -114 70t-109.5 -46t-77 -121t-44 -133t-25.5 -120q-9 -50 -11 -110q-1 -19 0 -39q0 -45 4 -95q6 -74 37 -121.5t84 -47.5q70 0 148 94h4l-27 -166q-72 -53 -160 -53 q-70 0 -118.5 36.5t-71.5 93t-33 128.5q-8 60 -8 116v22z" />
<glyph unicode="d" horiz-adv-x="714" d="M121 219q-1 28 -1 55q0 48 4 94q7 72 23 169q14 96 30 165.5t43.5 143.5t62 119t88 73.5t123.5 28.5q98 0 147 -88h4l105 659h133l-260 -1638h-134l13 82h-4q-80 -98 -189 -98q-63 0 -105 30.5t-60.5 79.5t-22.5 125zM255 250q1 -37 8 -62.5t19.5 -49t33 -35t46.5 -11.5 q41 0 74 21.5t54.5 56.5t40 96.5t31 122t26.5 154.5q16 97 20 167q2 31 2 60q0 36 -3 70q-5 60 -30.5 89t-70.5 29q-43 0 -78 -29.5t-57.5 -70.5t-41 -103.5t-26.5 -105.5t-18 -102q0 -6 -6.5 -41t-9.5 -56.5t-8 -63.5t-6 -70v-31v-35z" />
<glyph unicode="e" horiz-adv-x="702" d="M143 522q10 66 26.5 130.5t48.5 142t72 135t101.5 97.5t134.5 40q70 0 117 -36t69 -88q20 -52 28 -125q5 -46 5 -86q1 -24 -1 -47q-4 -60 -15 -124l-10 -63h-443l-4 -31q-8 -51 -10 -103q-1 -15 0 -30q0 -40 3 -84q5 -62 35 -101.5t79 -39.5q41 0 73.5 25.5t52 67.5 t31 78.5t17.5 75.5h137q-12 -66 -35.5 -127t-60.5 -118.5t-94.5 -92t-126.5 -34.5q-247 0 -247 336q0 89 17 202zM297 610h305l2 19q4 35 5 44t4 47q2 23 2 37q0 10 -1 16q-2 15 -4 48t-10 49.5t-19.5 36t-31 27.5t-43.5 8q-45 0 -84 -38t-63.5 -94t-40 -106.5t-21.5 -93.5z " />
<glyph unicode="f" horiz-adv-x="425" d="M113 0l147 928h-113l19 123h113l49 309q23 143 80 219t163 76q66 0 113 -23l-22 -145q-51 45 -91 45q-51 0 -73.5 -40t-36.5 -128l-49 -313h174l-19 -123h-174l-147 -928h-133z" />
<glyph unicode="g" horiz-adv-x="724" d="M68 -127l6 39h131l-2 -18q-6 -34 -6 -61q0 -125 116 -126q23 0 42.5 4t32.5 9.5t26.5 18.5t20.5 20.5t15.5 29t12.5 27.5t9 32.5t6 32.5t6 37t5 33l21 123q-78 -74 -182 -74q-53 0 -93 21.5t-62.5 53t-34 84t-14.5 95.5q-1 16 -1 35q0 31 3 71q5 62 9 99t12 90 q84 518 349 518q106 0 155 -88h4l11 72h133l-172 -1090q-12 -74 -21.5 -117t-33 -99t-56.5 -87t-90 -53.5t-133 -22.5q-135 0 -191 76q-41 54 -41 140q0 35 7 75zM259 330q1 -25 2 -64t9.5 -62.5t21.5 -48t36.5 -35.5t52.5 -11q35 0 62.5 15t49 48t37 67.5t28.5 91 t21.5 100.5t18.5 114q10 68 16.5 118t6.5 109t-10.5 97t-36 63.5t-68.5 25.5q-53 0 -89 -30.5t-71.5 -132t-66.5 -287.5q-4 -33 -7.5 -50.5t-8.5 -59.5q-4 -35 -4 -59v-9z" />
<glyph unicode="h" horiz-adv-x="727" d="M92 0l260 1638h133l-106 -671q102 100 223 100q55 0 91 -19.5t52.5 -47t20.5 -74.5q2 -24 2 -44.5t-2 -38.5q-4 -36 -12 -91l-119 -752h-133l114 729q13 72 13 120q-1 34 -7 56q-16 53 -87 53q-43 0 -77 -19t-54.5 -45t-36 -68t-21.5 -71.5t-12 -72.5l-109 -682h-133z " />
<glyph unicode="i" horiz-adv-x="317" d="M92 0l166 1051h133l-166 -1051h-133zM274 1362q6 41 41 69.5t76 28.5q39 0 63 -28q20 -23 20 -54q0 -8 -1 -16q-6 -41 -40 -70.5t-73 -29.5q-44 0 -68 30q-20 24 -19 54q0 8 1 16z" />
<glyph unicode="j" horiz-adv-x="317" d="M31 -387l227 1438h133l-227 -1438h-133zM274 1362q6 41 41 69.5t76 28.5q39 0 63 -28q20 -23 20 -54q0 -8 -1 -16q-6 -41 -40 -70.5t-73 -29.5q-43 0 -68 30q-19 23 -19 54q0 8 1 16z" />
<glyph unicode="k" horiz-adv-x="718" d="M92 0l260 1638h133l-161 -1013h4l323 426h152l-387 -471l303 -580h-166l-244 504h-4l-80 -504h-133z" />
<glyph unicode="l" horiz-adv-x="317" d="M92 0l260 1638h133l-260 -1638h-133z" />
<glyph unicode="m" horiz-adv-x="1144" d="M92 0l166 1051h133l-14 -88h4q98 104 217 104q63 0 110.5 -33t63.5 -92q109 125 238 125q55 0 93 -18.5t55.5 -45t23.5 -71.5q4 -30 4 -57q0 -13 -1 -26q-3 -38 -14 -93l-118 -756h-133l118 752q6 53 10 98v11q0 37 -20 65q-24 32 -76 32q-45 0 -79.5 -20t-55 -49 t-37 -76t-23.5 -81t-16 -85l-102 -647h-133l119 750q6 51 10 97q1 7 1 14q0 37 -20 65q-22 32 -73 32q-45 0 -82 -23.5t-58.5 -54t-39 -83t-24.5 -86t-15 -86.5l-99 -625h-133z" />
<glyph unicode="n" horiz-adv-x="727" d="M92 0l166 1051h133l-12 -84q102 100 223 100q53 0 89 -19.5t51.5 -49t20.5 -74.5q3 -28 3 -54q0 -15 -1 -29q-3 -38 -11 -89l-119 -752h-133l116 737q8 63 12 113v12q0 40 -20 66q-22 30 -75 30q-43 0 -77 -19t-54.5 -45t-36 -68t-21.5 -71.5t-12 -72.5l-109 -682h-133z " />
<glyph unicode="o" horiz-adv-x="727" d="M145 526q85 541 387 541q235 0 235 -328q0 -93 -19 -213q-86 -543 -387 -543l-1 1q-235 0 -234 328q0 94 19 214zM283 526q-20 -123 -20 -209q0 -208 116 -209q164 0 231 418q19 119 19 204q0 212 -117 212q-164 0 -229 -416z" />
<glyph unicode="p" horiz-adv-x="714" d="M29 -401l229 1452h133l-10 -72h4q76 88 178 88q57 0 99.5 -23.5t61.5 -67.5t30 -93q8 -41 8 -95v-21q-2 -67 -8 -117t-15.5 -114.5t-17.5 -105.5t-23.5 -105.5t-31 -106.5t-42 -90t-57 -76.5t-73.5 -48t-93 -19.5q-111 0 -159 98h-4l-76 -483h-133zM274 247q5 -40 15 -78 t33.5 -57.5t58.5 -19.5q90 0 135 96.5t86 348.5q8 55 12 88.5t10 90.5q2 29 2 52.5t-2 41.5q-6 36 -16 74t-34.5 56t-61.5 18q-35 0 -62.5 -16t-48 -48t-36 -65.5t-28.5 -87t-20.5 -91.5t-15.5 -95q-10 -61 -15 -105t-10 -104q-4 -32 -4 -59q0 -22 2 -40z" />
<glyph unicode="q" horiz-adv-x="714" d="M119 219q-1 14 -1 31q0 33 3 74q4 63 10 107t16 106q12 86 25.5 147t41.5 139t62.5 127t90 83t127.5 34q98 0 147 -88h4l10 72h133l-229 -1452h-133l76 483h-4q-80 -98 -189 -98q-51 0 -87 19.5t-57.5 48t-32.5 76.5t-13 91zM258 227q4 -37 14.5 -69.5t33.5 -49t56 -16.5 q41 0 73 22.5t54.5 57.5t41 97.5t30.5 123t27 150.5q14 96 19 167q2 32 2 61q0 36 -3 67q-6 59 -30.5 89.5t-69.5 30.5q-88 0 -138.5 -102t-82.5 -309q-10 -70 -16.5 -119t-10.5 -106q-2 -29 -2 -52.5t2 -42.5z" />
<glyph unicode="r" horiz-adv-x="419" d="M92 0l166 1051h133l-22 -140h4q37 66 88 112q49 44 107 44h5l-26 -156l-25 2q-51 0 -86 -21.5t-56.5 -67.5t-33.5 -93t-24 -119l-97 -612h-133z" />
<glyph unicode="s" horiz-adv-x="569" d="M55 55l25 156q41 -49 79 -75.5t91 -26.5q70 0 120 46t60 113q3 17 3 33q0 19 -4 37q-7 33 -32.5 68.5t-41 53t-56.5 58.5q-45 47 -71 80q-24 33 -44 87q-13 36 -13 74q0 20 3 40q18 119 102 193.5t203 74.5q96 0 172 -68l-24 -163h-4q-59 106 -158 106q-59 0 -101 -40 t-53 -99q-2 -11 -1 -22q0 -32 12 -62q18 -41 39.5 -64.5t64.5 -66.5q12 -10 18 -17q47 -45 73 -77q27 -30 45 -88q12 -36 11 -75q0 -23 -4 -46q-20 -129 -113.5 -215t-219.5 -86q-102 0 -181 71z" />
<glyph unicode="t" horiz-adv-x="430" d="M147 0l148 928h-113l19 123h112l45 286h134l-46 -286h175l-19 -123h-174l-147 -928h-134z" />
<glyph unicode="u" horiz-adv-x="716" d="M129 279l121 772h133l-104 -660q-7 -51 -11 -85q-3 -26 -4 -57q0 -9 1 -18q1 -41 11.5 -65.5t35 -40.5t61.5 -16q39 0 69.5 17t49 39.5t33 65.5t21.5 75t15 85l105 660h133l-121 -772q-23 -137 -103.5 -216t-218.5 -79t-194 78q-40 56 -40 142q0 35 7 75z" />
<glyph unicode="v" horiz-adv-x="647" d="M182 1051h135l31 -658q2 -33 4 -98.5t4 -97.5h9q39 137 59 196l238 658h137l-400 -1051h-143z" />
<glyph unicode="w" horiz-adv-x="1032" d="M188 1051h136l2 -621q0 -47 3 -137t3 -100h8q66 227 68 237l200 621h135l-4 -727q0 -20 -1 -65.5t-1 -65.5h6q6 23 18.5 64.5t23 75.5t22.5 64l233 654h136l-398 -1051h-137v762q0 20 3 60t5 52h-6q-41 -158 -51 -190l-221 -684h-135z" />
<glyph unicode="x" horiz-adv-x="686" d="M31 0l327 537l-137 514h148l49 -234q25 -127 28 -213h9q72 174 96 219l123 228h147l-315 -514l149 -537h-147l-66 276q-27 115 -26 177h-8q-20 -72 -80 -179l-148 -274h-149z" />
<glyph unicode="y" horiz-adv-x="679" d="M98 -401l172 430l-88 1022h135l43 -848h7l98 270l225 578h139l-591 -1452h-140z" />
<glyph unicode="z" horiz-adv-x="677" d="M31 0l563 928h-358l18 123h559l-571 -928h356l-20 -123h-547z" />
<glyph unicode="{" horiz-adv-x="614" d="M203 657l10 68q74 16 117 47q25 16 40 34.5t24 45.5t12.5 42t9.5 50l47 303q27 166 93.5 231.5t209.5 65.5h45l-10 -67q-113 -8 -158 -57.5t-63 -162.5l-45 -288q-18 -113 -60.5 -177.5t-144.5 -97.5l-2 -6q92 -33 114.5 -97.5t3.5 -176.5l-45 -289q-18 -113 10.5 -162 t141.5 -57l-12 -68h-45q-143 0 -188.5 65.5t-20.5 231.5l49 303q12 47 8 94.5t-41 77.5q-31 31 -100 47z" />
<glyph unicode="|" horiz-adv-x="454" d="M104 -438l326 2048h105l-326 -2048h-105z" />
<glyph unicode="}" horiz-adv-x="614" d="M20 -166l5 4v-4h-5zM25 -162l12 68q113 8 158 57t63 162l45 289q18 113 60.5 177t144.5 97l2 6q-92 33 -114.5 97.5t-4.5 177.5l45 288q18 113 -11.5 162t-139.5 58l10 67h45q145 0 190 -65.5t19 -231.5l-47 -303q-12 -47 -8 -94t41 -78q31 -31 96 -47l-10 -68 q-72 -16 -113 -47q-25 -16 -40 -34.5t-24.5 -45t-12.5 -42t-9 -50.5l-49 -303q-25 -166 -91.5 -231.5t-211.5 -65.5h-45z" />
<glyph unicode="~" horiz-adv-x="909" d="M115 455q61 80 122.5 128t139.5 48q66 0 184 -53q123 -53 160 -54q86 0 182 125l58 -69q-129 -166 -259 -166q-20 0 -54 8t-52 15t-61 25l-43 17q-6 2 -23.5 10.5t-27 11.5t-26 8t-29.5 7t-28 2q-31 0 -57.5 -10t-53 -37t-37.5 -40t-38 -48z" />
<glyph unicode="&#xa1;" horiz-adv-x="702" d="M219 -395l184 1157h138l-185 -1157h-137zM414 1061q6 43 42 73.5t79 30.5t68.5 -30.5t19 -73.5t-42 -74t-78.5 -31t-68.5 31t-19.5 74z" />
<glyph unicode="&#xa2;" d="M297 774q12 84 33.5 161t59.5 164t100.5 148.5t144.5 81.5l29 184h100l-29 -180q61 -10 96 -37l-24 -153q-53 70 -115 69q-59 0 -107 -46t-77 -120.5t-44 -133t-26 -119.5q-8 -51 -10 -110.5t3 -133.5t36 -122t84 -48q70 0 147 94h4l-26 -166q-45 -33 -111 -47l-33 -203 h-100l33 203q-238 78 -168 514z" />
<glyph unicode="&#xa3;" d="M82 74q41 70 101.5 117t125.5 47q12 0 33 -5q74 90 88 187q19 115 -24 201h-216l15 96h166q-117 254 -86 448q27 172 140.5 286t279.5 114q137 0 209.5 -102.5t52.5 -245.5l-144 -27q14 104 -22.5 174t-126.5 70q-104 0 -168 -75t-80 -185q-6 -35 -7 -69t6 -73t11 -63.5 t19.5 -68.5t21.5 -59.5t26.5 -65.5t22.5 -58h242l-14 -96h-193q27 -92 14 -170q-10 -66 -44.5 -138.5t-81.5 -119.5q14 -8 44.5 -37t59.5 -48.5t55 -19.5q70 2 103 123l114 -37q-20 -90 -84.5 -153.5t-148.5 -63.5q-16 0 -30.5 2t-30 8t-23.5 8t-25.5 13.5t-21.5 14.5 t-23.5 17.5t-21.5 16.5q-4 2 -30 22.5t-45 30.5t-36 10q-72 0 -117 -98z" />
<glyph unicode="&#xa4;" d="M127 594l29 88h84l4 35l20 121h-100l29 88h92q152 639 585 639q133 0 201 -47l-41 -140q-96 55 -190 56q-305 0 -418 -506h471l-29 -88h-461l-24 -158h438l-29 -88h-419q-39 -483 252 -483q96 0 217 57l-23 -139q-109 -49 -213 -49q-102 0 -177 37.5t-114 101 t-63.5 144.5t-23.5 165t5 166h-102z" />
<glyph unicode="&#xa5;" d="M135 625l15 88h315l-27 157h-264l14 88h234l-111 586h150l98 -727h4l99 254l215 473h149l-283 -586h222l-15 -88h-252l-73 -157h301l-15 -88h-309l-98 -625h-139l98 625h-328z" />
<glyph unicode="&#xa6;" horiz-adv-x="454" d="M145 -182l82 512h105l-82 -512h-105zM307 842l82 512h105l-82 -512h-105z" />
<glyph unicode="&#xa7;" horiz-adv-x="849" d="M113 -125h133q-6 -78 25.5 -124t107.5 -46t129 53.5t65 130.5q16 100 -30.5 160t-147.5 107q-139 66 -186 167t-25 244q23 145 103 250t217 127v4l-39 23q-156 88 -125 284q20 133 116.5 221.5t229.5 88.5q117 0 186.5 -77t53.5 -192h-133q2 66 -32 107t-99 41 q-80 0 -133.5 -56.5t-65.5 -136.5q-14 -86 30 -139t134 -106q143 -86 194 -182.5t29 -245.5q-25 -145 -91.5 -249t-172.5 -139l-2 -4q145 -90 112 -297q-20 -129 -117.5 -217t-224.5 -88q-125 0 -190.5 83t-50.5 208zM317 571q-33 -207 125 -288l54 -27q174 33 215 293 q39 244 -99 311l-41 14q-207 -10 -254 -303z" />
<glyph unicode="&#xa8;" horiz-adv-x="573" d="M264 1358q6 39 39 66.5t71 27.5t61.5 -27.5t17 -66.5t-39 -66.5t-70.5 -27.5t-61.5 27.5t-17.5 66.5zM551 1358q6 39 39 66.5t70.5 27.5t61 -27.5t17.5 -66.5t-38.5 -66.5t-70.5 -27.5t-61.5 27.5t-17.5 66.5z" />
<glyph unicode="&#xa9;" horiz-adv-x="1638" d="M197 774q33 213 161.5 395.5t318 289t392.5 106.5t357.5 -106.5t225 -289t38.5 -395.5q-35 -217 -164 -399t-317.5 -288.5t-391.5 -106.5t-357.5 106.5t-226 288.5t-36.5 399zM305 774q-31 -190 27.5 -348t192 -248t311.5 -90q270 0 484 197.5t261 488.5 q29 184 -29.5 340t-190.5 249t-308 93q-178 0 -340 -93t-270.5 -249t-137.5 -340zM563 780q33 199 164 327t320 128q135 0 218 -80t83 -219h-121q0 90 -55.5 140t-141.5 50q-135 0 -228 -98t-116 -246q-23 -141 41 -246.5t195 -105.5q84 0 158.5 55.5t99.5 143.5h120 q-37 -137 -149.5 -222t-245.5 -85q-184 0 -278.5 131t-63.5 327z" />
<glyph unicode="&#xaa;" horiz-adv-x="614" d="M292 1084.5q3 54.5 15 132.5q8 55 17.5 95t27 91t40 84t60 55.5t85.5 22.5q63 0 96 -45l4 34h98l-108 -682h-99l9 41h-5q-45 -51 -112 -51q-55 0 -86 29t-38 84t-4 109.5zM394 1016.5q7 -72.5 61 -72.5q23 0 42 11.5t32.5 34t22.5 43t17.5 55t11.5 52t8 50.5t5 35 q0 4 2 14q41 244 -51 244t-131 -242q-27 -152 -20 -224.5z" />
<glyph unicode="&#xab;" horiz-adv-x="770" d="M197 659l321 437l80 -49l-281 -388l156 -397l-96 -51zM457 659l319 437l82 -49l-280 -388l155 -397l-98 -51z" />
<glyph unicode="&#xac;" horiz-adv-x="909" d="M147 655l17 105h825l-88 -547h-104l71 442h-721z" />
<glyph unicode="&#xad;" horiz-adv-x="319" d="M90 573l27 162h319l-26 -162h-320z" />
<glyph unicode="&#xae;" horiz-adv-x="1638" d="M197 774q33 213 161.5 395.5t318 289t392.5 106.5t357.5 -106.5t225 -289t38.5 -395.5q-35 -217 -164 -399t-317.5 -288.5t-391.5 -106.5t-357.5 106.5t-226 288.5t-36.5 399zM305 774q-31 -190 27.5 -348t192 -248t311.5 -90q270 0 484 197.5t261 488.5 q29 184 -29.5 340t-190.5 249t-308 93q-178 0 -340 -93t-270.5 -249t-137.5 -340zM563 330l139 887h381q141 0 207 -46q43 -27 59.5 -79t8.5 -111q-20 -125 -105.5 -185.5t-210.5 -64.5l201 -401h-137l-186 401h-177l-63 -401h-117zM758 823h153q172 0 241 30t85 130 q6 45 -7 74.5t-45 43t-65 18.5t-76 5h-239z" />
<glyph unicode="&#xaf;" horiz-adv-x="573" d="M233 1300l17 109h522l-16 -109h-523z" />
<glyph unicode="&#xb0;" horiz-adv-x="819" d="M302.5 1258.5q19.5 125.5 124.5 216t231 90.5t202 -90.5t56.5 -217.5t-125 -217t-231.5 -90t-201.5 91.5t-56 217zM383 1257.5q-14 -92.5 42 -159t148.5 -66.5t169 66.5t91 159t-41 159t-147.5 66.5t-170 -66.5t-92 -159z" />
<glyph unicode="&#xb1;" horiz-adv-x="909" d="M47 23l16 104h826l-17 -104h-825zM135 575l17 105h360l53 346h105l-54 -346h361l-16 -105h-361l-55 -348h-105l56 348h-361z" />
<glyph unicode="&#xb2;" horiz-adv-x="512" d="M143 627l263 379q49 72 76.5 114.5t60 113.5t41.5 126q8 53 -10.5 87t-69.5 34q-106 0 -133 -162l-2 -19h-101q41 264 242 265q102 0 145 -58.5t29 -152.5q-6 -39 -18.5 -76t-40 -86t-39 -68.5t-51 -82t-43.5 -66.5l-185 -260h262l-14 -88h-412z" />
<glyph unicode="&#xb3;" horiz-adv-x="512" d="M180 840l6 41h101l-4 -27q-20 -156 86 -156q104 0 135 195q16 98 -15.5 149.5t-130.5 49.5h-26l14 86h16q100 0 142.5 33.5t58.5 136.5q23 133 -74 133q-59 0 -82.5 -39t-35.5 -105h-101q12 92 70.5 160t155.5 68q102 0 143 -57.5t27 -153.5q-27 -168 -150 -215 q121 -43 86 -260q-41 -265 -244 -265q-213 0 -178 226z" />
<glyph unicode="&#xb4;" horiz-adv-x="573" d="M346 1260l268 276l93 -98l-304 -240z" />
<glyph unicode="&#xb6;" horiz-adv-x="849" d="M195 1100q0 47 4 92q27 168 134 260t339 92h368l-307 -1939h-94l295 1853h-164l-295 -1853h-94l199 1243h-25q-96 0 -167 21.5t-108.5 57.5t-61 81t-23.5 92z" />
<glyph unicode="&#xb7;" horiz-adv-x="425" d="M190.5 516q6.5 43 41 74t77.5 31q45 0 71 -31t19.5 -74t-42 -73.5t-81.5 -30.5q-43 0 -67.5 30.5t-18 73.5z" />
<glyph unicode="&#xb8;" horiz-adv-x="573" d="M53 -406l221 322l99 -59l-244 -310z" />
<glyph unicode="&#xb9;" horiz-adv-x="512" d="M315 627l136 841h-129l32 84h209l-147 -925h-101z" />
<glyph unicode="&#xba;" horiz-adv-x="614" d="M288 1100q1 53 11 114t25.5 114.5t45 111t79 91.5t112.5 34q197 0 141 -351q-54 -352 -251 -352q-63 0 -102.5 34t-50.5 92.5t-10 111.5zM401 1214q-40 -260 62 -260q96 0 137 260q41 258 -55 259q-102 0 -144 -259z" />
<glyph unicode="&#xbb;" horiz-adv-x="770" d="M119 262l282 397l-157 388l96 49l182 -437l-323 -448zM379 262l285 397l-160 388l98 49l180 -437l-321 -448z" />
<glyph unicode="&#xbc;" horiz-adv-x="1273" d="M240 0l913 1544h84l-911 -1544h-86zM299 627l135 841h-129l33 84h209l-148 -925h-100zM782 248l15 88l358 590h111l-97 -598h76l-12 -80h-76l-39 -248h-100l39 248h-275zM891 328h178l45 276q4 31 21.5 100.5t21.5 86.5h-4z" />
<glyph unicode="&#xbd;" horiz-adv-x="1273" d="M219 0l914 1544h84l-912 -1544h-86zM315 627l136 841h-129l32 84h209l-147 -925h-101zM782 0l260 379q49 72 77 115t60.5 113.5t43.5 125.5q8 53 -11.5 87t-70.5 34q-106 0 -131 -162l-4 -18h-101q43 264 244 264q100 0 143 -58.5t29 -152.5q-6 -39 -18.5 -76t-39 -86 t-38 -68.5t-52 -82t-43.5 -66.5l-184 -260h262l-14 -88h-412z" />
<glyph unicode="&#xbe;" horiz-adv-x="1273" d="M221 840l6 41h101l-4 -27q-20 -156 86 -156q104 0 135 195q16 98 -15.5 149.5t-130.5 49.5h-26l14 86h16q100 0 142.5 33.5t58.5 136.5q23 133 -74 133q-59 0 -82.5 -39t-35.5 -105h-101q12 92 70.5 160t155.5 68q102 0 143 -57.5t27 -153.5q-27 -168 -150 -215 q121 -43 86 -260q-41 -265 -244 -265q-213 0 -178 226zM322 0l913 1544h84l-911 -1544h-86zM782 248l15 88l358 590h111l-97 -598h76l-12 -80h-76l-39 -248h-100l39 248h-275zM891 328h178l45 276l43 187h-4z" />
<glyph unicode="&#xbf;" horiz-adv-x="892" d="M167 -200.5q-3 61.5 9 128.5q10 57 15.5 89t19.5 88.5t28.5 88t41 73.5t58.5 65.5t78 40t101 16.5l60 373h133l-80 -498h-45q-51 0 -82 -3t-60.5 -14t-45 -29.5t-32 -56.5t-26.5 -86t-23 -124q-6 -45 -9 -73t-2 -63.5t10.5 -56t31 -35t55.5 -14.5q43 0 75 21.5t49.5 61.5 t25.5 72t14 77l11 55h133l-11 -55q-12 -84 -30.5 -141.5t-53 -111t-94 -79t-145.5 -25.5q-78 0 -126 29t-64.5 77t-19.5 109.5zM577.5 1061q6.5 43 42 73.5t78.5 30.5t69 -30.5t19.5 -73.5t-42 -74t-78.5 -31t-69 31t-19.5 74z" />
<glyph unicode="&#xc0;" horiz-adv-x="747" d="M0 0l547 1544h135l66 -1544h-154l-6 317h-328l-106 -317h-154zM303 442h281l-9 592q0 31 11 316h-8q-10 -37 -41 -146.5t-50 -169.5zM479 1870l123 98l180 -276l-75 -62z" />
<glyph unicode="&#xc1;" horiz-adv-x="747" d="M0 0l547 1544h135l66 -1544h-154l-6 317h-328l-106 -317h-154zM303 442h281l-9 592q0 31 11 316h-8q-10 -37 -41 -146.5t-50 -169.5zM504 1692l266 276l94 -98l-305 -240z" />
<glyph unicode="&#xc2;" horiz-adv-x="747" d="M0 0l547 1544h135l66 -1544h-154l-6 317h-328l-106 -317h-154zM303 442h281l-9 592q0 31 11 316h-8q-10 -37 -41 -146.5t-50 -169.5zM389 1704l291 250l221 -250l-88 -74l-156 176l-211 -176z" />
<glyph unicode="&#xc3;" horiz-adv-x="747" d="M0 0l547 1544h135l66 -1544h-154l-6 317h-328l-106 -317h-154zM303 442h281l-9 592q0 31 11 316h-8q-10 -37 -41 -146.5t-50 -169.5zM379 1706q14 66 67.5 116t124.5 50q35 0 100.5 -37t84.5 -37q25 0 42 20.5t19 43.5h121q-12 -57 -63.5 -111.5t-120.5 -54.5 q-39 0 -111 39q-59 39 -86 39q-49 0 -59 -68h-119z" />
<glyph unicode="&#xc4;" horiz-adv-x="747" d="M0 0l547 1544h135l66 -1544h-154l-6 317h-328l-106 -317h-154zM303 442h281l-9 592q0 31 11 316h-8q-10 -37 -41 -146.5t-50 -169.5zM420 1790q6 39 39 66.5t70.5 27.5t61 -27.5t17.5 -66.5t-37.5 -66.5t-70.5 -27.5t-62.5 27.5t-17.5 66.5zM706.5 1790q6.5 39 39 66.5 t70.5 27.5t61.5 -27.5t17.5 -66.5t-38 -66.5t-70.5 -27.5t-62.5 27.5t-17.5 66.5z" />
<glyph unicode="&#xc5;" horiz-adv-x="747" d="M0 0l547 1544h135l66 -1544h-154l-6 317h-328l-106 -317h-154zM303 442h281l-9 592q0 31 11 316h-8q-10 -37 -41 -146.5t-50 -169.5zM469 1762.5q12 76.5 75.5 131t140.5 54.5t122 -54.5t32.5 -131t-75 -131t-139 -54.5t-122.5 54.5t-34 131zM561 1763q-6 -39 17.5 -66.5 t62.5 -27.5t69.5 27.5t37 66.5t-16 65.5t-60.5 26.5t-71 -26.5t-39 -65.5z" />
<glyph unicode="&#xc6;" horiz-adv-x="1087" d="M0 0l555 1544h508l2 -131h-342l16 -545h320l4 -131h-320l19 -606h325v-131h-477l-2 317h-350l-104 -317h-154zM301 442h305l-6 684q0 25 14 254h-6l-86 -254z" />
<glyph unicode="&#xc7;" horiz-adv-x="751" d="M169 410q-1 88 5 159.5t16 147.5q12 74 22.5 127t34 148t50.5 165t72 152t97 133t128 87t162 36q117 0 174 -49l-25 -158q-88 68 -170 67q-72 0 -131 -41t-99 -103t-73 -153.5t-50 -172.5t-34 -179q-8 -49 -12 -80.5t-11.5 -96t-7.5 -111t2.5 -108t16.5 -103t35.5 -80.5 t59.5 -58.5t87 -19.5q92 -1 203 69l-25 -145q-100 -63 -207 -63q-86 0 -149.5 35.5t-97 98t-53 135.5t-20.5 161zM184 -406l222 322l98 -59l-244 -310z" />
<glyph unicode="&#xc8;" horiz-adv-x="692" d="M123 0l244 1544h485l-21 -131h-342l-86 -545h332l-20 -131h-332l-96 -606h342l-21 -131h-485zM451 1870l122 98l181 -276l-76 -62z" />
<glyph unicode="&#xc9;" horiz-adv-x="692" d="M123 0l244 1544h485l-21 -131h-342l-86 -545h332l-20 -131h-332l-96 -606h342l-21 -131h-485zM537 1692l266 276l94 -98l-305 -240z" />
<glyph unicode="&#xca;" horiz-adv-x="692" d="M123 0l244 1544h485l-21 -131h-342l-86 -545h332l-20 -131h-332l-96 -606h342l-21 -131h-485zM360 1704l291 250l221 -250l-88 -74l-155 176l-211 -176z" />
<glyph unicode="&#xcb;" horiz-adv-x="692" d="M123 0l244 1544h485l-21 -131h-342l-86 -545h332l-20 -131h-332l-96 -606h342l-21 -131h-485zM403.5 1790q6.5 39 39 66.5t70.5 27.5t61.5 -27.5t17.5 -66.5t-38 -66.5t-71 -27.5t-62.5 27.5t-17 66.5zM690 1790q6 39 39 66.5t71 27.5t61.5 -27.5t17 -66.5t-38 -66.5 t-70.5 -27.5t-62.5 27.5t-17.5 66.5z" />
<glyph unicode="&#xcc;" horiz-adv-x="389" d="M123 0l244 1544h143l-244 -1544h-143zM299 1870l123 98l180 -276l-76 -62z" />
<glyph unicode="&#xcd;" horiz-adv-x="389" d="M123 0l244 1544h143l-244 -1544h-143zM324 1692l266 276l94 -98l-305 -240z" />
<glyph unicode="&#xce;" horiz-adv-x="389" d="M123 0l244 1544h143l-244 -1544h-143zM209 1704l291 250l221 -250l-88 -74l-156 176l-211 -176z" />
<glyph unicode="&#xcf;" horiz-adv-x="389" d="M123 0l244 1544h143l-244 -1544h-143zM239.5 1790q6.5 39 39 66.5t70.5 27.5t61.5 -27.5t17.5 -66.5t-38 -66.5t-70.5 -27.5t-62.5 27.5t-17.5 66.5zM526 1790q6 39 39 66.5t71 27.5t61.5 -27.5t17.5 -66.5t-38 -66.5t-71 -27.5t-62.5 27.5t-17.5 66.5z" />
<glyph unicode="&#xd0;" horiz-adv-x="843" d="M92 737l21 131h147l107 676h155q57 0 95 -2t84.5 -10t75 -23.5t59 -43t46 -66.5t29 -95.5t14.5 -130t-7.5 -170t-26.5 -215.5q-39 -240 -82 -386t-113.5 -239t-166 -128t-240.5 -35h-166l117 737h-148zM287 131h41q49 0 92 11.5t75.5 26.5t61.5 45t47.5 54.5t36.5 69.5 t28.5 72.5t21.5 81t16.5 80t14.5 84t13 77.5q29 178 38 291t2 193.5t-40 120.5t-84 57.5t-137 17.5h-25l-86 -545h140l-21 -131h-139z" />
<glyph unicode="&#xd1;" horiz-adv-x="890" d="M123 0l244 1544h125l184 -1073q10 -53 22 -160h7q2 16 7 91t11 114l162 1028h125l-244 -1544h-125l-184 1038q-6 37 -12.5 110t-8.5 89h-8q-27 -268 -31 -299l-149 -938h-125zM451 1706q14 66 67 116t125 50q35 0 100.5 -37t83.5 -37q25 0 42.5 20.5t19.5 43.5h121 q-12 -57 -63.5 -111.5t-121.5 -54.5q-39 0 -110 39q-59 39 -86 39q-50 0 -60 -68h-118z" />
<glyph unicode="&#xd2;" horiz-adv-x="913" d="M167 459q3 84 11 155.5t23 157.5q20 131 43.5 234.5t65.5 212t93.5 181.5t129.5 119t172 46q72 0 126 -27t85.5 -70t50 -109.5t23.5 -131t1 -150.5t-12 -153.5t-21 -151.5q-12 -76 -23 -136.5t-33.5 -146.5t-48.5 -151.5t-65.5 -136t-86 -116.5t-110 -75.5t-138.5 -29.5 q-70 0 -123.5 25.5t-85 67.5t-50 105.5t-24.5 130t-3 150.5zM310 444.5q-1 -47.5 2 -100.5t14.5 -91t30 -69.5t48 -48t70.5 -16.5q47 0 87 22.5t68.5 58.5t55.5 92t44.5 107.5t33.5 125t25.5 124.5t21.5 123q8 61 15.5 106.5t13.5 110t7 111.5t-1 100t-14.5 91t-30 70 t-48 48t-71.5 16q-45 2 -85 -19.5t-69.5 -56t-55.5 -92t-43 -109.5t-34.5 -126t-27 -126t-19.5 -124q-10 -61 -16 -106t-13.5 -109.5t-8.5 -112zM530 1870l123 98l181 -276l-76 -62z" />
<glyph unicode="&#xd3;" horiz-adv-x="913" d="M167 459q3 84 11 155.5t23 157.5q20 131 43.5 234.5t65.5 212t93.5 181.5t129.5 119t172 46q72 0 126 -27t85.5 -70t50 -109.5t23.5 -131t1 -150.5t-12 -153.5t-21 -151.5q-12 -76 -23 -136.5t-33.5 -146.5t-48.5 -151.5t-65.5 -136t-86 -116.5t-110 -75.5t-138.5 -29.5 q-70 0 -123.5 25.5t-85 67.5t-50 105.5t-24.5 130t-3 150.5zM310 444.5q-1 -47.5 2 -100.5t14.5 -91t30 -69.5t48 -48t70.5 -16.5q47 0 87 22.5t68.5 58.5t55.5 92t44.5 107.5t33.5 125t25.5 124.5t21.5 123q8 61 15.5 106.5t13.5 110t7 111.5t-1 100t-14.5 91t-30 70 t-48 48t-71.5 16q-45 2 -85 -19.5t-69.5 -56t-55.5 -92t-43 -109.5t-34.5 -126t-27 -126t-19.5 -124q-10 -61 -16 -106t-13.5 -109.5t-8.5 -112zM616 1692l267 276l94 -98l-305 -240z" />
<glyph unicode="&#xd4;" horiz-adv-x="913" d="M167 459q3 84 11 155.5t23 157.5q20 131 43.5 234.5t65.5 212t93.5 181.5t129.5 119t172 46q72 0 126 -27t85.5 -70t50 -109.5t23.5 -131t1 -150.5t-12 -153.5t-21 -151.5q-12 -76 -23 -136.5t-33.5 -146.5t-48.5 -151.5t-65.5 -136t-86 -116.5t-110 -75.5t-138.5 -29.5 q-70 0 -123.5 25.5t-85 67.5t-50 105.5t-24.5 130t-3 150.5zM310 444.5q-1 -47.5 2 -100.5t14.5 -91t30 -69.5t48 -48t70.5 -16.5q47 0 87 22.5t68.5 58.5t55.5 92t44.5 107.5t33.5 125t25.5 124.5t21.5 123q8 61 15.5 106.5t13.5 110t7 111.5t-1 100t-14.5 91t-30 70 t-48 48t-71.5 16q-45 2 -85 -19.5t-69.5 -56t-55.5 -92t-43 -109.5t-34.5 -126t-27 -126t-19.5 -124q-10 -61 -16 -106t-13.5 -109.5t-8.5 -112zM471 1704l291 250l221 -250l-88 -74l-156 176l-211 -176z" />
<glyph unicode="&#xd5;" horiz-adv-x="913" d="M167 459q3 84 11 155.5t23 157.5q20 131 43.5 234.5t65.5 212t93.5 181.5t129.5 119t172 46q72 0 126 -27t85.5 -70t50 -109.5t23.5 -131t1 -150.5t-12 -153.5t-21 -151.5q-12 -76 -23 -136.5t-33.5 -146.5t-48.5 -151.5t-65.5 -136t-86 -116.5t-110 -75.5t-138.5 -29.5 q-70 0 -123.5 25.5t-85 67.5t-50 105.5t-24.5 130t-3 150.5zM310 444.5q-1 -47.5 2 -100.5t14.5 -91t30 -69.5t48 -48t70.5 -16.5q47 0 87 22.5t68.5 58.5t55.5 92t44.5 107.5t33.5 125t25.5 124.5t21.5 123q8 61 15.5 106.5t13.5 110t7 111.5t-1 100t-14.5 91t-30 70 t-48 48t-71.5 16q-45 2 -85 -19.5t-69.5 -56t-55.5 -92t-43 -109.5t-34.5 -126t-27 -126t-19.5 -124q-10 -61 -16 -106t-13.5 -109.5t-8.5 -112zM461 1706q14 66 67.5 116t124.5 50q35 0 100.5 -37t84.5 -37q25 0 42 20.5t19 43.5h121q-12 -57 -63.5 -111.5t-120.5 -54.5 q-39 0 -111 39q-59 39 -86 39q-49 0 -59 -68h-119z" />
<glyph unicode="&#xd6;" horiz-adv-x="913" d="M167 459q3 84 11 155.5t23 157.5q20 131 43.5 234.5t65.5 212t93.5 181.5t129.5 119t172 46q72 0 126 -27t85.5 -70t50 -109.5t23.5 -131t1 -150.5t-12 -153.5t-21 -151.5q-12 -76 -23 -136.5t-33.5 -146.5t-48.5 -151.5t-65.5 -136t-86 -116.5t-110 -75.5t-138.5 -29.5 q-70 0 -123.5 25.5t-85 67.5t-50 105.5t-24.5 130t-3 150.5zM310 444.5q-1 -47.5 2 -100.5t14.5 -91t30 -69.5t48 -48t70.5 -16.5q47 0 87 22.5t68.5 58.5t55.5 92t44.5 107.5t33.5 125t25.5 124.5t21.5 123q8 61 15.5 106.5t13.5 110t7 111.5t-1 100t-14.5 91t-30 70 t-48 48t-71.5 16q-45 2 -85 -19.5t-69.5 -56t-55.5 -92t-43 -109.5t-34.5 -126t-27 -126t-19.5 -124q-10 -61 -16 -106t-13.5 -109.5t-8.5 -112zM502 1790q6 39 38.5 66.5t70.5 27.5t61.5 -27.5t17.5 -66.5t-37.5 -66.5t-70.5 -27.5t-62.5 27.5t-17.5 66.5zM788.5 1790 q6.5 39 39 66.5t70.5 27.5t61.5 -27.5t17.5 -66.5t-38 -66.5t-71 -27.5t-62.5 27.5t-17 66.5z" />
<glyph unicode="&#xd7;" horiz-adv-x="909" d="M72 186l393 338l-285 338l86 74l283 -338l391 338l66 -72l-394 -340l285 -340l-86 -73l-285 340l-389 -336z" />
<glyph unicode="&#xd8;" horiz-adv-x="913" d="M53 25l133 206q-39 213 17 553q35 225 88 382t119.5 242t136 121t153.5 36q170 0 234 -138l88 138l82 -45l-129 -205q37 -209 -17 -543q-12 -70 -21 -123t-31.5 -141t-47 -153.5t-63.5 -139.5t-85 -123t-110.5 -80.5t-140.5 -31.5q-168 0 -234 139l-88 -139zM309 418h4 l525 870q-39 137 -156 137q-41 0 -70.5 -9t-69.5 -46t-70 -104.5t-63.5 -192.5t-60.5 -301q-23 -141 -39 -354zM328 264q31 -145 147 -145q121 0 200 146.5t136 506.5q27 178 39 350h-8z" />
<glyph unicode="&#xd9;" horiz-adv-x="880" d="M170 268.5q2 59.5 7 105.5t18 115l165 1055h144l-166 -1046q-12 -86 -18.5 -138.5t-4.5 -104.5t17.5 -77.5t46.5 -42t80 -16.5q115 0 161 83t78 296l166 1046h144l-166 -1055q-16 -100 -30.5 -164.5t-44.5 -136t-71 -112.5t-106.5 -68.5t-153.5 -27.5q-63 0 -111.5 14 t-79 36.5t-48 63.5t-23.5 78t-4 96.5zM483 1870l123 98l180 -276l-75 -62z" />
<glyph unicode="&#xda;" horiz-adv-x="880" d="M170 268.5q2 59.5 7 105.5t18 115l165 1055h144l-166 -1046q-12 -86 -18.5 -138.5t-4.5 -104.5t17.5 -77.5t46.5 -42t80 -16.5q115 0 161 83t78 296l166 1046h144l-166 -1055q-16 -100 -30.5 -164.5t-44.5 -136t-71 -112.5t-106.5 -68.5t-153.5 -27.5q-63 0 -111.5 14 t-79 36.5t-48 63.5t-23.5 78t-4 96.5zM631 1692l266 276l94 -98l-305 -240z" />
<glyph unicode="&#xdb;" horiz-adv-x="880" d="M170 268.5q2 59.5 7 105.5t18 115l165 1055h144l-166 -1046q-12 -86 -18.5 -138.5t-4.5 -104.5t17.5 -77.5t46.5 -42t80 -16.5q115 0 161 83t78 296l166 1046h144l-166 -1055q-16 -100 -30.5 -164.5t-44.5 -136t-71 -112.5t-106.5 -68.5t-153.5 -27.5q-63 0 -111.5 14 t-79 36.5t-48 63.5t-23.5 78t-4 96.5zM455 1704l290 250l222 -250l-88 -74l-156 176l-211 -176z" />
<glyph unicode="&#xdc;" horiz-adv-x="880" d="M170 268.5q2 59.5 7 105.5t18 115l165 1055h144l-166 -1046q-12 -86 -18.5 -138.5t-4.5 -104.5t17.5 -77.5t46.5 -42t80 -16.5q115 0 161 83t78 296l166 1046h144l-166 -1055q-16 -100 -30.5 -164.5t-44.5 -136t-71 -112.5t-106.5 -68.5t-153.5 -27.5q-63 0 -111.5 14 t-79 36.5t-48 63.5t-23.5 78t-4 96.5zM485.5 1790q6.5 39 39 66.5t70.5 27.5t61.5 -27.5t17.5 -66.5t-38 -66.5t-71 -27.5t-62.5 27.5t-17 66.5zM772 1790q6 39 39 66.5t71 27.5t61.5 -27.5t17 -66.5t-38 -66.5t-70.5 -27.5t-62.5 27.5t-17.5 66.5z" />
<glyph unicode="&#xdd;" horiz-adv-x="802" d="M283 1544h153l72 -520q4 -27 12 -97.5t15 -109.5h8q70 193 80 215l231 512h154l-420 -868l-107 -676h-143l106 676zM592 1692l266 276l94 -98l-305 -240z" />
<glyph unicode="&#xde;" horiz-adv-x="743" d="M123 0l244 1544h143l-51 -327q43 0 72.5 -1.5t68.5 -6.5t65.5 -12t56.5 -22.5t49.5 -36t36.5 -50t24.5 -68.5t7.5 -91t-11 -114q-45 -231 -143 -317t-317 -86h-37l-66 -412h-143zM352 543h56q76 0 121.5 13t76.5 49t45.5 82t30.5 128q25 160 -19.5 215t-195.5 55h-29z " />
<glyph unicode="&#xdf;" horiz-adv-x="753" d="M113 0l147 926h-110l18 125h111l28 174q12 76 22.5 125t36 112.5t59.5 101.5t91 64.5t131 26.5q152 0 205 -96.5t29 -253.5q-41 -262 -203 -318q35 -12 58.5 -39.5t36.5 -56.5t18.5 -77t5.5 -78.5t-5.5 -87t-8.5 -77t-11 -71.5q-14 -84 -28.5 -144.5t-44 -132t-69.5 -117 t-105.5 -76t-149.5 -30.5h-29l21 125h16q53 0 85 11t65.5 52t59 124t46.5 220q20 125 22.5 202t-16 119t-47.5 56.5t-80 16.5h-24l18 125h14q102 0 147.5 49t63.5 170q41 260 -112 260q-45 0 -78 -21.5t-52.5 -65.5t-30.5 -88t-22 -114l-196 -1241h-133z" />
<glyph unicode="&#xe0;" horiz-adv-x="714" d="M117 257q2 110 30 280q8 63 16.5 104t24 102.5t32 101.5t43 86t57 72.5t75.5 45t99 18.5q98 0 147 -88h4l10 72h133l-165 -1051h-134l13 82h-4q-80 -98 -189 -98q-68 0 -107.5 22.5t-63 81.5t-21.5 169zM259 199q5 -47 23.5 -72t35 -30t44.5 -5q94 0 139.5 96.5 t86.5 354.5q14 96 20 162.5t1 129t-30.5 93t-72.5 30.5q-43 0 -77 -27.5t-56.5 -64.5t-41 -98t-27.5 -108.5t-19 -112.5q-18 -125 -24.5 -213t-1.5 -135zM373 1438l125 98l178 -276l-74 -62z" />
<glyph unicode="&#xe1;" horiz-adv-x="714" d="M117 257q2 110 30 280q8 63 16.5 104t24 102.5t32 101.5t43 86t57 72.5t75.5 45t99 18.5q98 0 147 -88h4l10 72h133l-165 -1051h-134l13 82h-4q-80 -98 -189 -98q-68 0 -107.5 22.5t-63 81.5t-21.5 169zM259 199q5 -47 23.5 -72t35 -30t44.5 -5q94 0 139.5 96.5 t86.5 354.5q14 96 20 162.5t1 129t-30.5 93t-72.5 30.5q-43 0 -77 -27.5t-56.5 -64.5t-41 -98t-27.5 -108.5t-19 -112.5q-18 -125 -24.5 -213t-1.5 -135zM459 1260l268 276l92 -98l-303 -240z" />
<glyph unicode="&#xe2;" horiz-adv-x="714" d="M117 257q2 110 30 280q8 63 16.5 104t24 102.5t32 101.5t43 86t57 72.5t75.5 45t99 18.5q98 0 147 -88h4l10 72h133l-165 -1051h-134l13 82h-4q-80 -98 -189 -98q-68 0 -107.5 22.5t-63 81.5t-21.5 169zM259 199q5 -47 23.5 -72t35 -30t44.5 -5q94 0 139.5 96.5 t86.5 354.5q14 96 20 162.5t1 129t-30.5 93t-72.5 30.5q-43 0 -77 -27.5t-56.5 -64.5t-41 -98t-27.5 -108.5t-19 -112.5q-18 -125 -24.5 -213t-1.5 -135zM303 1272l293 250l219 -250l-86 -74l-158 176l-209 -176z" />
<glyph unicode="&#xe3;" horiz-adv-x="714" d="M117 257q2 110 30 280q8 63 16.5 104t24 102.5t32 101.5t43 86t57 72.5t75.5 45t99 18.5q98 0 147 -88h4l10 72h133l-165 -1051h-134l13 82h-4q-80 -98 -189 -98q-68 0 -107.5 22.5t-63 81.5t-21.5 169zM259 199q5 -47 23.5 -72t35 -30t44.5 -5q94 0 139.5 96.5 t86.5 354.5q14 96 20 162.5t1 129t-30.5 93t-72.5 30.5q-43 0 -77 -27.5t-56.5 -64.5t-41 -98t-27.5 -108.5t-19 -112.5q-18 -125 -24.5 -213t-1.5 -135zM295 1274q14 66 67.5 116t122.5 50q35 0 100.5 -37t86.5 -37q25 0 42 20.5t19 43.5h121q-14 -57 -65.5 -111.5 t-118.5 -54.5q-39 0 -111 39q-61 39 -86 38q-49 1 -59 -67h-119z" />
<glyph unicode="&#xe4;" horiz-adv-x="714" d="M117 257q2 110 30 280q8 63 16.5 104t24 102.5t32 101.5t43 86t57 72.5t75.5 45t99 18.5q98 0 147 -88h4l10 72h133l-165 -1051h-134l13 82h-4q-80 -98 -189 -98q-68 0 -107.5 22.5t-63 81.5t-21.5 169zM259 199q5 -47 23.5 -72t35 -30t44.5 -5q94 0 139.5 96.5 t86.5 354.5q14 96 20 162.5t1 129t-30.5 93t-72.5 30.5q-43 0 -77 -27.5t-56.5 -64.5t-41 -98t-27.5 -108.5t-19 -112.5q-18 -125 -24.5 -213t-1.5 -135zM336 1358q6 39 39 66.5t70.5 27.5t61 -27.5t17.5 -66.5t-38.5 -66.5t-70.5 -27.5t-61.5 27.5t-17.5 66.5zM622.5 1358 q6.5 39 39 66.5t70.5 27.5t61.5 -27.5t17.5 -66.5t-39 -66.5t-70.5 -27.5t-61.5 27.5t-17.5 66.5z" />
<glyph unicode="&#xe5;" horiz-adv-x="714" d="M117 257q2 110 30 280q8 63 16.5 104t24 102.5t32 101.5t43 86t57 72.5t75.5 45t99 18.5q98 0 147 -88h4l10 72h133l-165 -1051h-134l13 82h-4q-80 -98 -189 -98q-68 0 -107.5 22.5t-63 81.5t-21.5 169zM259 199q5 -47 23.5 -72t35 -30t44.5 -5q94 0 139.5 96.5 t86.5 354.5q14 96 20 162.5t1 129t-30.5 93t-72.5 30.5q-43 0 -77 -27.5t-56.5 -64.5t-41 -98t-27.5 -108.5t-19 -112.5q-18 -125 -24.5 -213t-1.5 -135zM394.5 1390.5q11.5 75.5 74.5 130t140 54.5t122 -54.5t34 -131t-73.5 -131t-139.5 -54.5t-123 55.5t-34.5 131z M487.5 1391q-6.5 -39 17 -67t61.5 -28t70 28t38 67t-17.5 65.5t-61.5 26.5t-69.5 -26.5t-38 -65.5z" />
<glyph unicode="&#xe6;" horiz-adv-x="1159" d="M110.5 226.5q-6.5 66.5 8.5 129.5q23 143 102.5 243.5t214.5 100.5q131 0 180 -86h5l4 27q10 55 8 109.5t-15.5 96.5t-54.5 68.5t-106 26.5q-35 0 -73 -14.5t-59.5 -26.5t-62.5 -41l23 146q94 61 196 61q201 0 238 -197h4q41 88 109.5 142.5t150.5 54.5q70 0 117 -36 t68.5 -88t28.5 -125t3 -133t-14 -124l-10 -63h-451l-4 -31q-8 -51 -10 -102.5t4 -115t36.5 -102t84.5 -38.5q39 0 68.5 20.5t49 58t29.5 67.5t18 71l9 30h137q-12 -66 -36 -127t-60.5 -118.5t-94 -92t-127.5 -34.5q-104 0 -152 49t-65 141h-4q-41 -88 -118.5 -139 t-163.5 -51q-74 0 -123 34.5t-67.5 88t-25 120zM243 241.5q1 -53.5 32 -93t90 -39.5q90 0 144 67.5t69 159.5q8 41 6 85t-12.5 83t-43 63.5t-84.5 24.5q-47 0 -82.5 -21.5t-58 -59.5t-35 -77t-20.5 -84q-6 -55 -5 -108.5zM745 610h314l4 19q49 313 -100 313q-47 0 -88 -37 t-67 -94t-40.5 -107.5t-22.5 -93.5z" />
<glyph unicode="&#xe7;" horiz-adv-x="569" d="M72 -406l221 322l98 -59l-244 -310zM129 379.5q2 64.5 12 124.5q10 70 26.5 136.5t49.5 147t75 140t105.5 99.5t141.5 40t137 -41l-25 -154q-53 70 -114 70t-109.5 -46t-77 -121t-44 -133t-25.5 -120q-8 -51 -10.5 -110.5t3 -133t37 -121.5t84.5 -48q70 0 148 94h4 l-27 -166q-72 -53 -160 -53q-70 0 -118.5 36.5t-71.5 93t-33 129t-8 137z" />
<glyph unicode="&#xe8;" horiz-adv-x="702" d="M143 522q10 66 26.5 130.5t48.5 142t72 135t101.5 97.5t134.5 40q70 0 117 -36t68.5 -88t29 -125t3 -133t-14.5 -124l-10 -63h-443l-4 -31q-8 -51 -10 -102.5t3 -114t35 -102t79 -39.5q41 0 73.5 25.5t52 67.5t31 78.5t17.5 75.5h137q-12 -66 -35.5 -127t-60.5 -118.5 t-94.5 -92t-126.5 -34.5q-313 0 -230 538zM297 610h305l2 19q4 35 5 44t4 47t1 53t-4 48t-10 49.5t-19.5 36t-31 27.5t-43.5 8q-45 0 -84 -38t-63.5 -94t-40 -106.5t-21.5 -93.5zM367 1438l125 98l178 -276l-74 -62z" />
<glyph unicode="&#xe9;" horiz-adv-x="702" d="M143 522q10 66 26.5 130.5t48.5 142t72 135t101.5 97.5t134.5 40q70 0 117 -36t68.5 -88t29 -125t3 -133t-14.5 -124l-10 -63h-443l-4 -31q-8 -51 -10 -102.5t3 -114t35 -102t79 -39.5q41 0 73.5 25.5t52 67.5t31 78.5t17.5 75.5h137q-12 -66 -35.5 -127t-60.5 -118.5 t-94.5 -92t-126.5 -34.5q-313 0 -230 538zM297 610h305l2 19q4 35 5 44t4 47t1 53t-4 48t-10 49.5t-19.5 36t-31 27.5t-43.5 8q-45 0 -84 -38t-63.5 -94t-40 -106.5t-21.5 -93.5zM453 1260l268 276l92 -98l-303 -240z" />
<glyph unicode="&#xea;" horiz-adv-x="702" d="M143 522q10 66 26.5 130.5t48.5 142t72 135t101.5 97.5t134.5 40q70 0 117 -36t68.5 -88t29 -125t3 -133t-14.5 -124l-10 -63h-443l-4 -31q-8 -51 -10 -102.5t3 -114t35 -102t79 -39.5q41 0 73.5 25.5t52 67.5t31 78.5t17.5 75.5h137q-12 -66 -35.5 -127t-60.5 -118.5 t-94.5 -92t-126.5 -34.5q-313 0 -230 538zM297 610h305l2 19q4 35 5 44t4 47t1 53t-4 48t-10 49.5t-19.5 36t-31 27.5t-43.5 8q-45 0 -84 -38t-63.5 -94t-40 -106.5t-21.5 -93.5zM297 1272l293 250l219 -250l-86 -74l-158 176l-209 -176z" />
<glyph unicode="&#xeb;" horiz-adv-x="702" d="M143 522q10 66 26.5 130.5t48.5 142t72 135t101.5 97.5t134.5 40q70 0 117 -36t68.5 -88t29 -125t3 -133t-14.5 -124l-10 -63h-443l-4 -31q-8 -51 -10 -102.5t3 -114t35 -102t79 -39.5q41 0 73.5 25.5t52 67.5t31 78.5t17.5 75.5h137q-12 -66 -35.5 -127t-60.5 -118.5 t-94.5 -92t-126.5 -34.5q-313 0 -230 538zM297 610h305l2 19q4 35 5 44t4 47t1 53t-4 48t-10 49.5t-19.5 36t-31 27.5t-43.5 8q-45 0 -84 -38t-63.5 -94t-40 -106.5t-21.5 -93.5zM330 1358q6 39 38.5 66.5t70.5 27.5t61.5 -27.5t17.5 -66.5t-39 -66.5t-70.5 -27.5t-61 27.5 t-17.5 66.5zM616.5 1358q6.5 39 39 66.5t70.5 27.5t61.5 -27.5t17.5 -66.5t-39 -66.5t-71 -27.5t-61.5 27.5t-17 66.5z" />
<glyph unicode="&#xec;" horiz-adv-x="317" d="M92 0l166 1051h133l-166 -1051h-133zM195 1438l124 98l179 -276l-74 -62z" />
<glyph unicode="&#xed;" horiz-adv-x="317" d="M92 0l166 1051h133l-166 -1051h-133zM219 1260l268 276l93 -98l-304 -240z" />
<glyph unicode="&#xee;" horiz-adv-x="317" d="M92 0l166 1051h133l-166 -1051h-133zM104 1272l293 250l219 -250l-86 -74l-157 176l-209 -176z" />
<glyph unicode="&#xef;" horiz-adv-x="317" d="M92 0l166 1051h133l-166 -1051h-133zM137 1358q6 39 39 66.5t71 27.5t61.5 -27.5t17 -66.5t-39 -66.5t-70.5 -27.5t-61.5 27.5t-17.5 66.5zM424 1358q6 39 39 66.5t70.5 27.5t61 -27.5t17.5 -66.5t-38.5 -66.5t-70.5 -27.5t-61.5 27.5t-17.5 66.5z" />
<glyph unicode="&#xf0;" horiz-adv-x="724" d="M145 526q8 61 25.5 124t49.5 137.5t73 130t103.5 93.5t133.5 38q39 0 84 -23q-37 137 -88 242l-149 -84l-45 82l155 86q-61 119 -165 241l114 43q98 -106 162 -221l156 86l45 -80l-158 -88q182 -369 107 -807q-2 -6 -5 -16q-14 -61 -21 -95t-26.5 -97.5t-37 -102.5 t-48 -88t-64.5 -76.5t-82 -47t-104 -19.5q-301 0 -215 542zM266.5 386q-4.5 -64 1.5 -132t34 -106.5t77 -38.5q47 0 83 28.5t63.5 90t46 129t38.5 169.5q8 59 13.5 99.5t9.5 95.5t-1 91t-17.5 71t-38 51t-64.5 16q-49 0 -90 -40t-67.5 -108.5t-44 -135t-27.5 -140.5 q-12 -76 -16.5 -140z" />
<glyph unicode="&#xf1;" horiz-adv-x="727" d="M92 0l166 1051h133l-12 -84q102 100 223 100q53 0 89 -19.5t51.5 -49t20.5 -74.5t2 -83t-11 -89l-119 -752h-133l116 737q8 63 11.5 112.5t-19 79t-75.5 29.5q-43 0 -77 -19t-54.5 -45t-36 -68t-21.5 -71.5t-12 -72.5l-109 -682h-133zM301 1274q14 66 67.5 116t123.5 50 q35 0 100 -37t86 -37q25 0 42 20.5t19 43.5h121q-14 -57 -65.5 -111.5t-118.5 -54.5q-39 0 -111 39q-61 39 -86 38q-49 1 -59 -67h-119z" />
<glyph unicode="&#xf2;" horiz-adv-x="727" d="M145 526q86 541 387.5 541t215.5 -541q-86 -543 -387.5 -542.5t-215.5 542.5zM283 526q-68 -418 96 -417.5t231 417.5q66 416 -98 416t-229 -416zM358 1438l125 98l179 -276l-74 -62z" />
<glyph unicode="&#xf3;" horiz-adv-x="727" d="M145 526q86 541 387.5 541t215.5 -541q-86 -543 -387.5 -542.5t-215.5 542.5zM283 526q-68 -418 96 -417.5t231 417.5q66 416 -98 416t-229 -416zM465 1260l268 276l92 -98l-303 -240z" />
<glyph unicode="&#xf4;" horiz-adv-x="727" d="M145 526q86 541 387.5 541t215.5 -541q-86 -543 -387.5 -542.5t-215.5 542.5zM283 526q-68 -418 96 -417.5t231 417.5q66 416 -98 416t-229 -416zM309 1272l293 250l219 -250l-86 -74l-157 176l-209 -176z" />
<glyph unicode="&#xf5;" horiz-adv-x="727" d="M145 526q86 541 387.5 541t215.5 -541q-86 -543 -387.5 -542.5t-215.5 542.5zM283 526q-68 -418 96 -417.5t231 417.5q66 416 -98 416t-229 -416zM301 1274q14 66 67.5 116t123.5 50q35 0 100 -37t86 -37q25 0 42 20.5t19 43.5h121q-14 -57 -65.5 -111.5t-118.5 -54.5 q-39 0 -111 39q-61 39 -86 38q-49 1 -59 -67h-119z" />
<glyph unicode="&#xf6;" horiz-adv-x="727" d="M145 526q86 541 387.5 541t215.5 -541q-86 -543 -387.5 -542.5t-215.5 542.5zM283 526q-68 -418 96 -417.5t231 417.5q66 416 -98 416t-229 -416zM342 1358q6 39 39 66.5t70.5 27.5t61.5 -27.5t17.5 -66.5t-39 -66.5t-70.5 -27.5t-61.5 27.5t-17.5 66.5zM629 1358 q6 39 38.5 66.5t70.5 27.5t61.5 -27.5t17.5 -66.5t-39 -66.5t-70.5 -27.5t-61 27.5t-17.5 66.5z" />
<glyph unicode="&#xf7;" horiz-adv-x="909" d="M119 473l16 105h826l-17 -105h-825zM372 127q7 43 43 73.5t79 30.5t68.5 -30.5t18 -73.5t-42 -73.5t-77.5 -30.5t-69.5 30.5t-19.5 73.5zM499 924q7 43 43 73.5t79 30.5t68.5 -30.5t18 -73.5t-43 -74t-78.5 -31t-68.5 31t-18.5 74z" />
<glyph unicode="&#xf8;" horiz-adv-x="727" d="M35 35l106 145q-29 145 4 344q10 74 26.5 138.5t48.5 142.5t73 132t104.5 92t143.5 38q119 0 178 -100l76 100l63 -45l-104 -143q29 -133 -6 -355q-86 -541 -379 -540q-135 0 -197 104l-72 -96zM262 332h4l350 512q-6 41 -32.5 69.5t-65.5 28.5q-170 0 -235 -418 q-6 -35 -21 -192zM272 211q27 -102 113 -102q53 0 96 47t68.5 125.5t38 131t22.5 111.5l17 191h-4z" />
<glyph unicode="&#xf9;" horiz-adv-x="716" d="M129 279l121 772h133l-104 -660q-8 -51 -11.5 -85t-2.5 -75t11.5 -65.5t35 -40.5t61.5 -16q39 0 69.5 17t49 39.5t33 65.5t21.5 75t15 85l105 660h133l-121 -772q-23 -137 -103.5 -216t-218.5 -79q-137 0 -193.5 78.5t-33.5 216.5zM352 1438l125 98l178 -276l-73 -62z " />
<glyph unicode="&#xfa;" horiz-adv-x="716" d="M129 279l121 772h133l-104 -660q-8 -51 -11.5 -85t-2.5 -75t11.5 -65.5t35 -40.5t61.5 -16q39 0 69.5 17t49 39.5t33 65.5t21.5 75t15 85l105 660h133l-121 -772q-23 -137 -103.5 -216t-218.5 -79q-137 0 -193.5 78.5t-33.5 216.5zM459 1260l268 276l92 -98l-303 -240z " />
<glyph unicode="&#xfb;" horiz-adv-x="716" d="M129 279l121 772h133l-104 -660q-8 -51 -11.5 -85t-2.5 -75t11.5 -65.5t35 -40.5t61.5 -16q39 0 69.5 17t49 39.5t33 65.5t21.5 75t15 85l105 660h133l-121 -772q-23 -137 -103.5 -216t-218.5 -79q-137 0 -193.5 78.5t-33.5 216.5zM303 1272l293 250l219 -250l-86 -74 l-158 176l-209 -176z" />
<glyph unicode="&#xfc;" horiz-adv-x="716" d="M129 279l121 772h133l-104 -660q-8 -51 -11.5 -85t-2.5 -75t11.5 -65.5t35 -40.5t61.5 -16q39 0 69.5 17t49 39.5t33 65.5t21.5 75t15 85l105 660h133l-121 -772q-23 -137 -103.5 -216t-218.5 -79q-137 0 -193.5 78.5t-33.5 216.5zM336 1358q6 39 39 66.5t70.5 27.5 t61 -27.5t17.5 -66.5t-38.5 -66.5t-70.5 -27.5t-61.5 27.5t-17.5 66.5zM622.5 1358q6.5 39 39 66.5t70.5 27.5t61.5 -27.5t17.5 -66.5t-39 -66.5t-70.5 -27.5t-61.5 27.5t-17.5 66.5z" />
<glyph unicode="&#xfd;" horiz-adv-x="679" d="M98 -401l172 430l-88 1022h135l43 -848h7l98 270l225 578h139l-591 -1452h-140zM461 1260l268 276l92 -98l-303 -240z" />
<glyph unicode="&#xfe;" horiz-adv-x="714" d="M29 -401l297 1876h133l-78 -496h4q76 88 178 88q57 0 98 -20.5t62.5 -60.5t32 -85t8.5 -111.5t-8 -122t-17 -130.5q-18 -109 -34.5 -186t-44 -150.5t-61.5 -118.5t-84 -71.5t-114 -26.5q-111 0 -159 98h-4l-76 -483h-133zM272 240q4 -39 15.5 -76t35 -54.5t58.5 -17.5 q94 0 138 102.5t83 352.5q8 51 13.5 86t9.5 89t-1.5 91t-15.5 73t-34.5 54t-61.5 18q-41 0 -73.5 -26.5t-53 -63.5t-38 -97t-27 -105t-19.5 -112t-16 -113t-11.5 -104t-1.5 -97z" />
<glyph unicode="&#xff;" horiz-adv-x="679" d="M98 -401l172 430l-88 1022h135l43 -848h7l98 270l225 578h139l-591 -1452h-140zM317.5 1358q6.5 39 39 66.5t70.5 27.5t61.5 -27.5t17.5 -66.5t-39 -66.5t-71 -27.5t-61.5 27.5t-17 66.5zM604 1358q6 39 39 66.5t71 27.5t61.5 -27.5t17 -66.5t-39 -66.5t-70.5 -27.5 t-61.5 27.5t-17.5 66.5z" />
<glyph unicode="&#x152;" horiz-adv-x="1255" d="M167 428q-1 59 7 136t13.5 121t15.5 103q10 63 21.5 121t33 139.5t47 148.5t64.5 138.5t84 119.5t107.5 79t131.5 31q72 0 127 -44t78 -114h4l21 137h477l-21 -131h-342l-86 -545h332l-20 -131h-332l-96 -606h342l-21 -131h-477l24 160h-4q-41 -80 -112.5 -130 t-153.5 -50q-63 0 -111.5 23.5t-77 70.5t-47 99t-23.5 124t-6 131zM312 484.5q-7 -105.5 4.5 -191.5t48 -130t102.5 -44q137 0 202.5 132t121.5 482q14 96 23 165t17.5 139.5t8.5 119.5t-4.5 96t-16.5 77t-31.5 52.5t-48 32.5t-67.5 10q-221 0 -330 -692 q-23 -143 -30 -248.5z" />
<glyph unicode="&#x153;" horiz-adv-x="1146" d="M145 526q10 63 25.5 127t46.5 141.5t70 135t100.5 97.5t134.5 40q82 0 132.5 -67.5t47.5 -153.5h5q31 88 106.5 154.5t157.5 66.5q70 0 117 -36t68.5 -88t28.5 -125t3 -133t-14 -124l-11 -63h-448l-4 -31q-8 -51 -10.5 -102.5t4 -115t36 -102t82.5 -38.5q39 0 69 20.5 t49.5 58t29.5 67.5t18 71l8 30h138q-12 -66 -36 -127t-61 -118.5t-94 -92t-127 -34.5q-90 0 -146.5 59t-64.5 162h-4q-33 -92 -101.5 -156.5t-156.5 -64.5q-141 0 -190.5 145t-8.5 397zM267 349.5q-1 -64.5 6.5 -113t33 -87t66.5 -40.5q49 0 92 48t68.5 124.5t41 136 t23.5 112.5q6 39 10 80t5 104.5t-7 110.5t-33.5 82t-66.5 35q-51 4 -92 -40t-68 -119.5t-40 -134t-23 -120.5q-6 -37 -10.5 -75.5t-5.5 -103zM735 610h312l2 19q4 35 5 44t4 47t1 53t-4 48t-10.5 49.5t-19.5 36t-30.5 27.5t-44.5 8q-47 0 -87 -37t-65.5 -94t-40 -107.5 t-22.5 -93.5z" />
<glyph unicode="&#x178;" horiz-adv-x="802" d="M283 1544h153l72 -520q4 -27 12 -97.5t15 -109.5h8q70 193 80 215l231 512h154l-420 -868l-107 -676h-143l106 676zM459 1790q6 39 38.5 66.5t70.5 27.5t61.5 -27.5t17.5 -66.5t-37.5 -66.5t-70.5 -27.5t-62.5 27.5t-17.5 66.5zM745.5 1790q6.5 39 39 66.5t70.5 27.5 t61.5 -27.5t17.5 -66.5t-38 -66.5t-71 -27.5t-62.5 27.5t-17 66.5z" />
<glyph unicode="&#x2c6;" horiz-adv-x="573" d="M231 1272l293 250l219 -250l-86 -74l-157 176l-209 -176z" />
<glyph unicode="&#x2dc;" horiz-adv-x="573" d="M223 1274q14 66 67.5 116t123.5 50q35 0 100.5 -37t85.5 -37q25 0 42 20.5t20 43.5h120q-14 -57 -65 -111.5t-119 -54.5q-39 0 -111 39q-61 39 -86 38q-49 1 -59 -67h-119z" />
<glyph unicode="&#x2000;" horiz-adv-x="984" />
<glyph unicode="&#x2001;" horiz-adv-x="1968" />
<glyph unicode="&#x2002;" horiz-adv-x="984" />
<glyph unicode="&#x2003;" horiz-adv-x="1968" />
<glyph unicode="&#x2004;" horiz-adv-x="656" />
<glyph unicode="&#x2005;" horiz-adv-x="492" />
<glyph unicode="&#x2006;" horiz-adv-x="328" />
<glyph unicode="&#x2007;" horiz-adv-x="328" />
<glyph unicode="&#x2008;" horiz-adv-x="246" />
<glyph unicode="&#x2009;" horiz-adv-x="393" />
<glyph unicode="&#x200a;" horiz-adv-x="109" />
<glyph unicode="&#x2010;" horiz-adv-x="319" d="M90 573l27 162h319l-26 -162h-320z" />
<glyph unicode="&#x2011;" horiz-adv-x="319" d="M90 573l27 162h319l-26 -162h-320z" />
<glyph unicode="&#x2012;" horiz-adv-x="319" d="M90 573l27 162h319l-26 -162h-320z" />
<glyph unicode="&#x2013;" horiz-adv-x="1024" d="M90 573l27 162h1024l-27 -162h-1024z" />
<glyph unicode="&#x2014;" horiz-adv-x="2048" d="M356 573l27 162h1515l-26 -162h-1516z" />
<glyph unicode="&#x2018;" horiz-adv-x="458" d="M254 1108l276 457l91 -47l-236 -478z" />
<glyph unicode="&#x2019;" horiz-adv-x="458" d="M250 1087l235 478l133 -68l-278 -457z" />
<glyph unicode="&#x201a;" horiz-adv-x="458" d="M-29 -283l236 478l133 -68l-279 -457z" />
<glyph unicode="&#x201c;" horiz-adv-x="733" d="M254 1108l276 457l91 -47l-236 -478zM526 1108l277 457l92 -47l-236 -478z" />
<glyph unicode="&#x201d;" horiz-adv-x="733" d="M250 1087l235 478l133 -68l-278 -457zM524 1087l236 478l133 -68l-279 -457z" />
<glyph unicode="&#x201e;" horiz-adv-x="733" d="M33 -283l235 478l133 -68l-278 -457zM307 -283l236 478l133 -68l-279 -457z" />
<glyph unicode="&#x2022;" horiz-adv-x="849" d="M164 774q25 158 156.5 271.5t291.5 113.5q156 0 251 -113.5t71 -271.5q-25 -156 -157 -270.5t-288 -114.5q-158 0 -254 114.5t-71 270.5z" />
<glyph unicode="&#x2026;" horiz-adv-x="2048" d="M249 88q7 43 43 74t79 31t68.5 -31t18.5 -74t-42 -73.5t-78 -30.5t-69.5 30.5t-19.5 73.5zM933 88q7 43 43 74t79 31t68.5 -31t18.5 -74t-42 -73.5t-78 -30.5t-69.5 30.5t-19.5 73.5zM1617 88q7 43 43 74t79 31t68.5 -31t18.5 -74t-42 -73.5t-78 -30.5t-69.5 30.5 t-19.5 73.5z" />
<glyph unicode="&#x202f;" horiz-adv-x="393" />
<glyph unicode="&#x2039;" horiz-adv-x="509" d="M195 647l323 449l80 -52l-283 -397l158 -387l-96 -49z" />
<glyph unicode="&#x203a;" horiz-adv-x="509" d="M119 262l282 397l-157 388l96 49l182 -437l-323 -448z" />
<glyph unicode="&#x205f;" horiz-adv-x="492" />
<glyph unicode="&#x20ac;" d="M127 594l29 88h84l4 35l20 121h-100l29 88h92q152 639 585 639q133 0 201 -47l-41 -140q-96 55 -190 56q-305 0 -418 -506h471l-29 -88h-461l-24 -158h438l-29 -88h-419q-39 -483 252 -483q96 0 217 57l-23 -139q-109 -49 -213 -49q-102 0 -177 37.5t-114 101 t-63.5 144.5t-23.5 165t5 166h-102z" />
<glyph unicode="&#x2122;" horiz-adv-x="1478" d="M344 1440l16 104h482l-17 -104h-188l-119 -758h-104l118 758h-188zM799 682l135 862h180l57 -608h5l256 608h176l-135 -862h-105l119 754h-4l-312 -754h-73l-72 754h-4l-119 -754h-104z" />
<glyph unicode="&#x25fc;" horiz-adv-x="1054" d="M0 0v1055h1055v-1055h-1055z" />
<glyph unicode="&#xfb01;" horiz-adv-x="743" d="M113 0l147 928h-113l19 123h113l49 311q25 145 81 219t162 74q66 0 113 -23l-22 -145q-51 45 -91 45q-49 0 -72.5 -41t-37.5 -127l-49 -313h174l-19 -123h-174l-147 -928h-133zM518 0l166 1051h133l-166 -1051h-133zM700 1362q6 41 41 69.5t76 28.5q39 0 63.5 -28.5 t18.5 -69.5t-40 -70.5t-73 -29.5q-43 0 -67.5 29.5t-18.5 70.5z" />
<glyph unicode="&#xfb02;" horiz-adv-x="743" d="M113 0l147 928h-113l19 123h113l49 309q47 295 243 295q66 0 113 -23l-22 -145q-51 45 -91 45q-53 0 -74.5 -39t-35.5 -131l-49 -311h174l-19 -123h-174l-147 -928h-133zM518 0l260 1638h133l-260 -1638h-133z" />
</font>
</defs>
</svg>
