<?xml version="1.0" standalone="no"?>
<!DOCTYPE svg PUBLIC "-//W3C//DTD SVG 1.1//EN" "http://www.w3.org/Graphics/SVG/1.1/DTD/svg11.dtd" >
<svg xmlns="http://www.w3.org/2000/svg" xmlns:xlink="http://www.w3.org/1999/xlink" version="1.1">
<metadata></metadata>
<defs>
<font id="futura_ltbookoblique" horiz-adv-x="1261" >
<font-face units-per-em="2048" ascent="1638" descent="-410" />
<missing-glyph horiz-adv-x="630" />
<glyph horiz-adv-x="0" />
<glyph unicode="&#xd;" horiz-adv-x="681" />
<glyph unicode=" "  horiz-adv-x="630" />
<glyph unicode="&#x09;" horiz-adv-x="630" />
<glyph unicode="&#xa0;" horiz-adv-x="630" />
<glyph unicode="!" horiz-adv-x="692" d="M246 90q8 47 47 80t86 33t75.5 -33t20.5 -80t-47 -82t-86 -35t-75.5 35t-20.5 82zM311 313l195 1231h168l-195 -1231h-168z" />
<glyph unicode="&#x22;" horiz-adv-x="935" d="M383 872l70 672h192l-143 -672h-119zM709 872l69 672h193l-144 -672h-118z" />
<glyph unicode="#" d="M162 457l26 159h236l115 351h-220l25 159h244l139 418h158l-140 -418h254l138 418h161l-137 -418h189l-25 -159h-215l-115 -351h207l-26 -159h-236l-154 -457h-155l151 457h-252l-157 -457h-154l152 457h-209zM584 616h252l114 351h-252z" />
<glyph unicode="$" d="M211 375l174 47q-4 -109 61.5 -191t169.5 -90l99 625q-76 33 -127 65.5t-99.5 79.5t-67 113t-3.5 147q25 156 143.5 260.5t280.5 127.5l32 210h136l-33 -210q100 -14 177 -78t108 -156l-148 -88q-57 137 -164 158l-80 -506q82 -37 135.5 -72t103.5 -86t68.5 -120.5 t4.5 -157.5q-27 -170 -155 -299t-300 -164l-35 -226h-135l33 213q-162 8 -268.5 121t-110.5 277zM588 1165q-21 -131 155 -217l72 449q-84 -16 -148.5 -82t-78.5 -150zM754 156q102 33 170.5 111.5t85.5 181.5q25 156 -170 256z" />
<glyph unicode="%" horiz-adv-x="1632" d="M260 1233q23 141 139.5 239.5t259 98.5t227.5 -98.5t62 -239.5q-20 -139 -138 -237.5t-259 -98.5t-227 97.5t-64 238.5zM328 27l1142 1544l76 -49l-1138 -1549zM391 1233q-12 -84 41 -144.5t140 -60.5t160 60.5t85 144.5q14 86 -39 146.5t-140 60.5t-159.5 -60.5 t-87.5 -146.5zM930 309q23 141 139.5 239.5t258.5 98.5t227 -98t63 -240q-23 -139 -139.5 -237.5t-258 -98.5t-227.5 97.5t-63 238.5zM1061 309q-14 -84 40 -144.5t140 -60.5t159 60.5t87 144.5q14 86 -40 146.5t-140 60.5t-159 -60.5t-87 -146.5z" />
<glyph unicode="&#x26;" horiz-adv-x="1423" d="M143 395q8 53 27.5 103.5t42.5 88.5t61.5 78t68.5 65.5t83 62t84 55t92 55.5l21 12q-2 2 -18.5 32t-19.5 35t-17.5 31.5t-17.5 37t-12.5 35t-11.5 39t-6 36t-3 42t3 40.5q23 145 133.5 236.5t255.5 91.5q135 0 218 -86t63 -217q-8 -53 -34 -102.5t-51.5 -82t-77.5 -75.5 t-78.5 -62.5t-92.5 -62.5l260 -416l207 203l109 -103l-234 -229l209 -338h-217l-131 217q-143 -113 -272.5 -178.5t-260.5 -65.5q-182 0 -296.5 121t-86.5 301zM313 408q-18 -111 50.5 -195t177.5 -84q55 0 111.5 17.5t121 57.5t99 64.5t104.5 77.5l-275 442l-81 -49 q-68 -41 -103 -65.5t-87 -68.5t-80.5 -93t-37.5 -104zM684 1223.5q-2 -11.5 3 -30.5t8 -28.5t11.5 -27t13.5 -26.5t15 -26.5t15 -25.5l28 -51l17 10q8 6 48 32.5t52 36t43 35t43 43t26.5 46t18.5 57.5q10 70 -32 113.5t-111 43.5q-70 0 -127.5 -49t-69.5 -121 q0 -20 -2 -31.5z" />
<glyph unicode="'" horiz-adv-x="591" d="M375 872l69 672h193l-143 -672h-119z" />
<glyph unicode="(" horiz-adv-x="587" d="M279.5 561q103.5 656 353.5 1053l133 -70q-231 -434 -318.5 -983t7.5 -983l-156 -70q-123 397 -19.5 1053z" />
<glyph unicode=")" horiz-adv-x="587" d="M-2 -422q233 434 320 983t-9 983l158 70q123 -397 19.5 -1052.5t-353.5 -1053.5z" />
<glyph unicode="*" horiz-adv-x="1212" d="M416 1210l71 148l254 -101l33 287h154l-58 -287l287 101l27 -148l-291 -77l141 -226l-139 -92l-121 242l-199 -242l-110 92l217 226z" />
<glyph unicode="+" d="M205 444l26 160h416l66 416h159l-65 -416h416l-27 -160h-416l-65 -415h-160l66 415h-416z" />
<glyph unicode="," horiz-adv-x="630" d="M70 -307l274 532l143 -53l-313 -524z" />
<glyph unicode="-" horiz-adv-x="425" d="M70 418l24 151h420l-25 -151h-419z" />
<glyph unicode="." horiz-adv-x="630" d="M215 90q8 47 47 80t86 33t76 -33t20 -80q-8 -47 -47 -82t-86 -35t-75.5 35t-20.5 82z" />
<glyph unicode="/" horiz-adv-x="1167" d="M-4 -260l1268 1950l125 -62l-1270 -1950z" />
<glyph unicode="0" d="M187 540.5q-3 112.5 14 229.5q14 98 51 204.5t97.5 214t136 191.5t179 137.5t214.5 53.5q96 0 171.5 -37t125 -100.5t83 -144.5t47 -171t13.5 -178t-12 -170q-25 -145 -84.5 -285.5t-146.5 -255t-204.5 -185.5t-244.5 -71q-102 0 -185.5 46.5t-134.5 125t-84 181t-36 215 zM360.5 613q-4.5 -81 13 -166t47.5 -154.5t90 -114.5t141 -45t155 45t126 113.5t95 156t67.5 165t37 148t14.5 152.5t-12.5 171.5t-45 161t-91 118.5t-143.5 47t-158.5 -47t-129 -118.5t-96.5 -161t-66.5 -171.5t-33.5 -151q-6 -68 -10.5 -149z" />
<glyph unicode="1" d="M543 1384l114 160h338l-243 -1544h-172l219 1384h-256z" />
<glyph unicode="2" d="M84 0l858 854q125 125 145 258q20 127 -56.5 213t-203.5 86q-137 0 -236 -90t-124 -227h-172q37 205 192.5 341t358.5 136q199 0 321.5 -130t92.5 -327q-31 -190 -168 -326l-635 -628h651l-25 -160h-999z" />
<glyph unicode="3" d="M180 401h168q-12 -117 61.5 -192.5t192.5 -75.5q129 0 229.5 90t120.5 219q23 143 -56 218t-224 71l24 160q68 2 120 14.5t101.5 39t81 76.5t41.5 120q20 123 -42 196.5t-185 73.5q-111 0 -187.5 -67.5t-105.5 -180.5h-170q49 188 177 298t315 110q190 0 295.5 -117 t76.5 -305q-16 -104 -84.5 -197.5t-166.5 -140.5q100 -49 140 -151.5t19 -227.5q-31 -201 -190.5 -330t-360.5 -129q-193 0 -305 119t-86 309z" />
<glyph unicode="4" d="M51 250l1178 1380h4l-193 -1220h191l-27 -160h-190l-39 -250h-172l39 250h-791zM379 410h489l111 698h-4z" />
<glyph unicode="5" d="M82 250l154 98q39 -96 119.5 -155.5t187.5 -59.5q170 0 298 112.5t154 282.5q25 162 -69.5 268.5t-255.5 106.5q-141 0 -310 -98l340 739h615l-25 -160h-493l-152 -329l92 8q225 0 345 -155.5t85 -383.5q-39 -238 -227 -394.5t-428 -156.5q-152 0 -262.5 73t-167.5 204z " />
<glyph unicode="6" d="M170 502q27 174 199 370l622 699l115 -96l-432 -480l4 -4q68 23 137 23q211 0 332 -149.5t88 -360.5q-35 -221 -216 -376t-401 -155q-219 0 -351 156t-97 373zM340 498q-23 -152 65.5 -258.5t239 -106.5t272 106.5t144.5 258.5q25 150 -64.5 253t-238.5 103 q-152 0 -272.5 -103.5t-145.5 -252.5z" />
<glyph unicode="7" d="M80 53l1087 1331h-843l24 160h1139l-1284 -1571z" />
<glyph unicode="8" d="M227 432q20 121 96 221.5t191 149.5q-80 49 -116 142t-19 196q31 184 174 307t326.5 123t289 -123t74.5 -307q-16 -102 -80.5 -195.5t-161.5 -142.5q100 -49 144.5 -149.5t23.5 -221.5q-31 -199 -186.5 -329t-356 -130t-315 130t-84.5 329zM400.5 430q-19.5 -123 53 -210 t198.5 -87t226.5 87t120 210t-54.5 210t-198.5 87t-225 -87t-120 -210zM545 1145q-18 -113 48 -192t177 -79t202 79t109 192q16 111 -50 188.5t-177 77.5t-202 -78t-107 -188z" />
<glyph unicode="9" d="M258 1044q35 219 216 373t399.5 154t351.5 -153.5t98 -373.5q-29 -172 -203 -370l-622 -701l-115 88l434 490l-4 4q-72 -20 -137 -20q-211 0 -332 149.5t-86 359.5zM430 1051q-23 -150 65.5 -253.5t239.5 -103.5q150 0 271.5 103.5t144.5 253.5q25 150 -64 255t-239 105 t-271.5 -105.5t-146.5 -254.5z" />
<glyph unicode=":" horiz-adv-x="630" d="M215 90q8 47 47 80t86 33t76 -33t20 -80q-8 -47 -47 -82t-86 -35t-75.5 35t-20.5 82zM340 877q6 47 45 79.5t87 32.5t75.5 -32.5t21.5 -79.5q-8 -47 -47 -82t-86 -35t-75.5 34.5t-20.5 82.5z" />
<glyph unicode=";" horiz-adv-x="630" d="M74 -307l274 532l144 -53l-314 -524zM391 877q6 47 45 79.5t87 32.5t76 -32.5t22 -79.5q-8 -47 -47 -82t-86.5 -35t-76 34.5t-20.5 82.5z" />
<glyph unicode="&#x3c;" d="M207 453l22 143l1059 424l-28 -174l-803 -322l702 -321l-29 -174z" />
<glyph unicode="=" d="M180 285l25 159h991l-25 -159h-991zM231 604l25 160h991l-24 -160h-992z" />
<glyph unicode="&#x3e;" d="M139 29l29 174l805 321l-705 322l29 174l924 -424l-23 -143z" />
<glyph unicode="?" horiz-adv-x="999" d="M266 651q20 127 105.5 199t226.5 115q8 2 29 8q49 14 74.5 23.5t65.5 27.5t60.5 39.5t40 56.5t27.5 80q14 94 -36 153.5t-142 59.5q-86 0 -152.5 -58.5t-79.5 -144.5q-8 -49 -4 -98h-170l8 109q25 156 151 253t282.5 97t245.5 -105.5t65 -263.5q-12 -78 -52 -151.5 t-102 -122.5q-14 -10 -28.5 -19.5t-32 -18.5t-29.5 -15.5t-34.5 -14.5t-33 -11t-36 -11.5l-31.5 -10.5t-34.5 -10t-31.5 -8q-78 -20 -126 -59t-60 -111q-10 -70 32 -117t111 -47q80 0 132.5 56.5t64.5 140.5h166q-18 -150 -130 -252.5t-259 -102.5q-143 0 -224 96.5 t-59 237.5zM395 90q8 47 47 80t86 33t76 -33t21 -80t-47 -82t-86.5 -35t-76 35t-20.5 82z" />
<glyph unicode="@" horiz-adv-x="1638" d="M197 772q35 223 168 406.5t328.5 288t410.5 104.5q285 0 455 -176q197 -199 155 -469q-43 -264 -196 -430q-84 -92 -174.5 -136.5t-167.5 -40.5q-43 2 -68 35t-25 90q-143 -125 -297 -125q-137 0 -223 111t-61 264q31 193 170 338.5t323 145.5q162 -1 250 -144l49 125 h146l-187 -522q0 -4 -4 -10q-8 -25 -12 -37t-11 -35t-8 -36t1 -27.5t11 -21.5t25 -7q72 0 170.5 125t128.5 266q57 262 -81 415.5t-398 153.5q-272 0 -480 -185t-251 -466q-47 -291 115 -471t444 -180q260 0 408 94l127 -104q-139 -66 -271.5 -102t-302.5 -36 q-219 0 -384 102.5t-242.5 287t-40.5 409.5zM647 709q-18 -109 30 -177.5t152 -68.5q125 0 205 86t117 213q35 123 -12 199.5t-154 76.5q-119 0 -219.5 -102t-118.5 -227z" />
<glyph unicode="A" horiz-adv-x="1431" d="M12 0l969 1618l438 -1618h-190l-113 438h-659l-256 -438h-189zM551 598h522l-160 619z" />
<glyph unicode="B" horiz-adv-x="1163" d="M156 0l243 1544h254q111 0 197 -21.5t152 -68.5q64 -47 92 -130q17 -50 17 -112q0 -40 -7 -86q-31 -201 -199 -301q129 -33 191 -143q45 -81 45 -180q0 -35 -6 -72q-23 -147 -115 -246.5t-219 -141.5t-287 -42h-358zM352 160h172q395 0 441 282q5 28 5 52q0 38 -12 69 q-18 51 -53 80t-91 46.5t-107.5 22.5t-116.5 5h-150zM465 864h65q68 0 114 4t99.5 19.5t88 43t62.5 77t38 118.5q4 43 6 78t-10.5 61.5t-24.5 45t-36.5 32t-48 21.5t-59.5 13t-69 6t-76 1h-67z" />
<glyph unicode="C" horiz-adv-x="1468" d="M188 766q35 217 172.5 402.5t340 294t419.5 108.5q259 0 439 -152l-35 -213q-78 96 -191.5 150.5t-247.5 54.5q-168 0 -325.5 -88t-263.5 -235q-108 -148 -134 -316q-8 -51 -7 -100q-1 -112 41 -216q60 -148 191.5 -235.5t299.5 -87.5q129 0 260 55.5t239 149.5l-32 -213 q-233 -152 -486 -152q-215 0 -384 105q-168 106 -248 290q-57 131 -57 277q0 59 9 121z" />
<glyph unicode="D" horiz-adv-x="1388" d="M156 0l243 1544h291q195 0 329 -39t245 -147q175 -175 175 -442q0 -70 -12 -146q-57 -350 -344 -575q-147 -115 -293.5 -155t-347.5 -40h-286zM352 160h125q158 0 279 33.5t235 125.5q221 180 264 453q8 52 8 103q1 79 -19 153q-32 121 -116 207q-86 88 -194.5 118.5 t-261.5 30.5h-125z" />
<glyph unicode="E" horiz-adv-x="1093" d="M156 0l243 1544h801l-24 -160h-629l-72 -458h610l-26 -160h-610l-97 -606h629l-25 -160h-800z" />
<glyph unicode="F" horiz-adv-x="978" d="M156 0l243 1544h703l-25 -160h-530l-72 -458h514l-26 -160h-514l-121 -766h-172z" />
<glyph unicode="G" horiz-adv-x="1679" d="M186 768q35 217 172.5 402.5t340 293t419.5 107.5q397 0 602 -334l-143 -117q-160 291 -485 291q-262 0 -476.5 -190.5t-257.5 -454.5q-8 -51 -8 -100q0 -190 121 -336q74 -88 181.5 -142.5t224.5 -54.5q137 0 271 59.5t234.5 173t122.5 250.5h-458l24 160h643 q-25 -176 -77 -303t-169 -242q-125 -123 -287.5 -190.5t-324.5 -67.5q-213 0 -380 107.5t-244 291.5q-55 129 -55 274q0 60 9 122z" />
<glyph unicode="H" horiz-adv-x="1462" d="M164 0l244 1544h172l-99 -626h791l98 626h172l-244 -1544h-172l121 758h-790l-121 -758h-172z" />
<glyph unicode="I" horiz-adv-x="489" d="M160 0l243 1544h172l-243 -1544h-172z" />
<glyph unicode="J" horiz-adv-x="643" d="M-141 -45l116 133q41 -45 77 -66.5t91 -21.5q47 0 85 23.5t59.5 53t38 81t22.5 82t14 82.5l193 1222h172l-192 -1222q-14 -82 -23.5 -128.5t-38.5 -113t-74 -113.5q-115 -127 -284 -127q-139 0 -256 115z" />
<glyph unicode="K" horiz-adv-x="1251" d="M156 0l243 1544h172l-104 -661l762 661h231l-837 -719l618 -825h-237l-521 709l-51 -43l-104 -666h-172z" />
<glyph unicode="L" horiz-adv-x="768" d="M156 0l243 1544h172l-219 -1384h426l-24 -160h-598z" />
<glyph unicode="M" horiz-adv-x="1835" d="M43 0l571 1632l357 -1296l768 1296l55 -1632h-176l-33 1044h-4l-674 -1107l-319 1107h-4l-365 -1044h-176z" />
<glyph unicode="N" horiz-adv-x="1708" d="M166 0l256 1610l1003 -1262l189 1196h172l-254 -1614l-1006 1260l-188 -1190h-172z" />
<glyph unicode="O" horiz-adv-x="1765" d="M201 770q33 217 171 401.5t340.5 292t419 107.5t385.5 -107.5t247 -291.5q55 -130 55 -276q0 -61 -9 -126q-35 -217 -173 -401.5t-339.5 -290t-418.5 -105.5t-386 105.5t-248 289.5q-55 128 -55 272q0 63 11 130zM373 772q-9 -55 -10 -108q1 -110 43 -210 q62 -146 193.5 -233.5t303.5 -87.5q262 0 477 188.5t258 450.5q8 53 8 104q0 114 -42 216q-60 148 -192 233.5t-306 85.5q-264 0 -478 -187.5t-255 -451.5z" />
<glyph unicode="P" horiz-adv-x="1030" d="M156 0l243 1544h254q84 0 137.5 -4t120 -22.5t113.5 -55.5q76 -59 106 -152q19 -60 19 -126q0 -36 -6 -74q-16 -96 -68.5 -184t-132.5 -148q-139 -102 -383 -102h-125l-106 -676h-172zM461 836h114q352 0 396 278q5 31 5 58q0 37 -10 67q-16 51 -45.5 79t-86 43 t-104.5 19t-120 4h-63z" />
<glyph unicode="Q" horiz-adv-x="1765" d="M201 770q33 217 171 401.5t340.5 292t417.5 107.5q221 0 389.5 -108.5t246.5 -294.5q53 -127 53 -270q0 -64 -11 -132q-47 -305 -309 -545l195 -235h-219l-107 139q-104 -72 -237.5 -112t-251.5 -40q-217 0 -386 105.5t-248 289.5q-55 128 -55 272q0 63 11 130zM373 772 q-9 -55 -9 -108q0 -111 42 -210q61 -147 193 -234t304 -87q88 0 186.5 31t176.5 84l-314 375h226l223 -279q197 178 237 428q8 54 8 105q0 114 -42 215q-60 147 -192 233t-306 86q-264 0 -478 -187.5t-255 -451.5z" />
<glyph unicode="R" horiz-adv-x="1110" d="M156 0l243 1544h224q94 0 170.5 -10t147.5 -40t115 -76t62 -122q10 -40 10 -87q0 -43 -8 -91q-27 -178 -150.5 -294.5t-301.5 -131.5l381 -692h-211l-361 678h-43l-106 -678h-172zM459 829h53q84 0 147.5 10.5t128 38t105.5 85t55 143.5q4 32 4 60q0 36 -7 66 q-13 52 -42 81.5t-82 46t-102 20.5t-121 4h-51z" />
<glyph unicode="S" horiz-adv-x="1144" d="M141 373l174 47q0 -121 72 -204t193 -83q129 0 237.5 87t128.5 214q3 21 3 42q0 28 -6 53q-11 44 -27.5 71t-58.5 57.5t-66.5 44t-81.5 39.5l-86 41q-74 35 -121 67t-91 78q-43 47 -59 109q-9 35 -9 76q0 32 5 66q29 174 173.5 283.5t320.5 109.5q129 0 224 -62.5 t138 -177.5l-151 -88q-35 84 -90.5 126t-149.5 42q-104 0 -190 -67.5t-103 -172.5q-2 -13 -2 -26q0 -25 8 -47q12 -34 27.5 -56t50.5 -45.5t56.5 -35t62.5 -31.5l94 -45q82 -39 134.5 -73t100.5 -84t66 -120q9 -37 9 -80q0 -37 -7 -77q-33 -201 -195.5 -339.5t-365.5 -138.5 q-184 0 -296.5 110t-121.5 290z" />
<glyph unicode="T" horiz-adv-x="962" d="M240 1384l24 160h922l-25 -160h-377l-219 -1384h-172l219 1384h-372z" />
<glyph unicode="U" horiz-adv-x="1402" d="M225 410q2 68 19 168l151 966h172l-145 -919q-12 -88 -18 -125q-3 -18 -2 -44q0 -28 2 -62q6 -68 32 -113q37 -68 118 -108t169 -40q84 0 173 37t153 100q43 43 70.5 105.5t36.5 105.5t22 119q2 16 2 25l145 919h172l-151 -966q-25 -147 -65 -243.5t-138 -184.5 q-94 -84 -210 -130.5t-235 -46.5q-111 0 -210 41t-164 117q-55 61 -78 136q-21 69 -21 132v11z" />
<glyph unicode="V" horiz-adv-x="1277" d="M256 1544h186l254 -1177l627 1177h186l-884 -1636z" />
<glyph unicode="W" horiz-adv-x="2234" d="M270 1544h187l223 -1157l696 1237l303 -1237l588 1157h187l-848 -1624l-303 1243l-697 -1243z" />
<glyph unicode="X" horiz-adv-x="1155" d="M27 0l583 799l-301 745h197l223 -581l408 581h196l-534 -745l329 -799h-196l-254 635l-455 -635h-196z" />
<glyph unicode="Y" horiz-adv-x="1214" d="M260 1544h199l284 -688l502 688h199l-645 -880l-105 -664h-172l105 664z" />
<glyph unicode="Z" horiz-adv-x="1200" d="M29 0l1061 1384h-736l25 160h1022l-1063 -1384h821l-24 -160h-1106z" />
<glyph unicode="[" horiz-adv-x="645" d="M135 -492l334 2106h389l-24 -152h-222l-284 -1802h221l-25 -152h-389z" />
<glyph unicode="\" horiz-adv-x="1167" d="M295 1628l145 62l690 -1690l-143 -61z" />
<glyph unicode="]" horiz-adv-x="645" d="M-35 -492l25 152h221l285 1802h-222l25 152h389l-334 -2106h-389z" />
<glyph unicode="^" d="M240 659l561 885h147l283 -885h-182l-207 672l-424 -672h-178z" />
<glyph unicode="_" horiz-adv-x="1024" d="M-41 -256l16 102h1024l-16 -102h-1024z" />
<glyph unicode="`" horiz-adv-x="733" d="M389 1446l184 78l191 -336l-113 -58z" />
<glyph unicode="a" horiz-adv-x="1181" d="M150 479q35 213 184 361.5t360 148.5q96 0 175 -43t128 -121h4l21 138h164l-152 -963h-164l21 133h-4q-152 -160 -357 -160q-137 0 -232 72q-95 71 -132 185q-24 72 -24 154q0 46 8 95zM319 492q-7 -40 -7 -78q0 -102 50 -180q68 -108 216 -109q152 0 253 105.5 t125 258.5q6 36 6 70q0 103 -55 179q-72 100 -219 100q-139 0 -242.5 -102.5t-126.5 -243.5z" />
<glyph unicode="b" horiz-adv-x="1181" d="M147 0l269 1690h164l-138 -865h4q70 78 164.5 121t192.5 43q207 -1 311 -149q78 -111 79 -257q0 -49 -9 -102q-33 -209 -184.5 -358.5t-356.5 -149.5q-100 0 -180 41t-127 119h-4l-21 -133h-164zM381 492q-7 -40 -7 -78q0 -102 50 -180q68 -108 215 -109q152 0 253 105.5 t126 258.5q6 36 6 70q0 103 -55 179q-72 100 -219 100q-139 0 -243 -102.5t-126 -243.5z" />
<glyph unicode="c" horiz-adv-x="974" d="M135 481q35 213 208 360.5t388 147.5q162 0 281 -96l-35 -217h-4q-100 162 -273 162q-147 0 -260 -104q-112 -104 -136 -252q-6 -35 -5 -68q-1 -104 57 -184q76 -104 224 -105q186 0 338 166h4l-33 -219q-162 -98 -322 -99q-219 -1 -343 145q-97 113 -97 271q0 44 8 92z " />
<glyph unicode="d" horiz-adv-x="1181" d="M150 479q35 213 184 361.5t360 148.5q96 0 176 -43t127 -121h4l138 865h164l-269 -1690h-164l21 133h-4q-147 -160 -357 -160q-137 0 -232 72q-95 71 -132 185q-24 72 -24 154q0 46 8 95zM319 492q-7 -40 -7 -78q0 -102 50 -180q68 -108 216 -109q152 0 253 105.5 t125 258.5q6 36 6 70q0 103 -55 179q-72 100 -219 100q-139 0 -242.5 -102.5t-126.5 -243.5z" />
<glyph unicode="e" horiz-adv-x="1062" d="M143 469q37 223 184.5 371.5t366.5 148.5q111 0 196 -44t128 -119q44 -76 58 -175q5 -36 5 -74q0 -64 -16 -131h-756q-4 -29 -4 -56q-1 -99 57 -172q74 -93 211 -93q182 0 324 199l127 -80q-90 -129 -216 -200t-271 -71q-211 1 -319 143q-83 110 -82 260q0 45 7 93z M338 586h575q0 106 -68.5 179t-174 73t-202.5 -74t-130 -178z" />
<glyph unicode="f" horiz-adv-x="561" d="M170 0l129 811h-90l22 152h91l61 383q29 180 82 249q94 121 268 121q51 0 113 -20l-27 -166q-60 22 -102 22h-4q-39 0 -67 -13t-44 -29.5t-29.5 -56.5t-18.5 -69.5t-15 -95.5l-54 -325h244l-22 -152h-244l-129 -811h-164z" />
<glyph unicode="g" horiz-adv-x="1187" d="M66 -94h163q-4 -28 -4 -54q0 -94 57 -157q74 -80 207 -80q92 0 161 31.5t110 90t65.5 126t36.5 155.5l19 115h-4q-70 -76 -166.5 -118t-192.5 -42q-205 0 -308 147q-79 112 -79 260q0 46 8 97q33 211 186.5 361.5t360.5 150.5q98 0 176 -43t125 -121h4l21 138h164 l-144 -916q-16 -100 -27.5 -152.5t-46 -127t-90.5 -134.5q-80 -84 -184 -127t-217 -43q-203 0 -317 121q-90 96 -90 244q0 37 6 78zM309 492q-7 -40 -7 -78q0 -101 50 -180q68 -109 215 -109q152 0 253.5 105.5t125.5 258.5q6 36 6 70q0 104 -55 179q-72 100 -219 100 q-139 0 -242.5 -102.5t-126.5 -243.5z" />
<glyph unicode="h" horiz-adv-x="1081" d="M156 0l268 1690h164l-133 -840l2 -4q129 143 299 143q94 0 156.5 -33.5t86 -91t28.5 -133.5q1 -18 1 -37q0 -59 -12 -123l-90 -571h-164l86 543q8 55 11 91q1 15 1 32q0 22 -2 47q-4 43 -21.5 67.5t-53 41t-91.5 16.5q-66 0 -116 -25t-79.5 -59.5t-52 -90t-33 -99.5 t-20.5 -107l-72 -457h-163z" />
<glyph unicode="i" horiz-adv-x="536" d="M186 0l152 963h164l-152 -963h-164zM360 1325q8 47 48.5 82t88.5 35q49 0 77 -35q22 -27 22 -62q0 -10 -2 -20q-6 -49 -46 -83t-88 -34t-77 34q-24 28 -24 67q0 8 1 16z" />
<glyph unicode="j" horiz-adv-x="536" d="M100 -541l238 1504h164l-238 -1504h-164zM360 1325q8 47 48.5 82t88.5 35t77 -35q22 -27 22 -62q0 -10 -2 -20q-6 -49 -46 -83t-88 -34t-77 34q-24 28 -24 67q0 8 1 16z" />
<glyph unicode="k" horiz-adv-x="962" d="M147 0l269 1690h164l-172 -1084l405 357h219l-475 -410l401 -553h-217l-317 438l-49 -43l-64 -395h-164z" />
<glyph unicode="l" horiz-adv-x="464" d="M152 0l268 1690h164l-269 -1690h-163z" />
<glyph unicode="m" horiz-adv-x="1572" d="M156 0l151 963h164l-16 -105h4q106 131 254 131q84 0 148.5 -43t90.5 -117q53 78 138.5 119t177.5 41q253 0 253 -273q0 -59 -12 -130l-92 -586h-164l88 559q6 39 9.5 65.5t3.5 62.5t-8.5 59.5t-22.5 46t-43 34t-70 11.5q-55 0 -98 -20.5t-69.5 -52.5t-46 -78t-30 -86 t-18.5 -91l-80 -510h-163l86 547q10 55 11 97v9q0 38 -8 82q-8 49 -40.5 76t-87.5 27t-99.5 -22.5t-72 -54.5t-48 -81t-30.5 -90t-19 -92l-78 -498h-163z" />
<glyph unicode="n" horiz-adv-x="1081" d="M156 0l151 963h164l-18 -117h4q129 143 299 143q94 0 156.5 -33.5t86 -91t28.5 -133.5q1 -18 1 -37q0 -59 -12 -123l-90 -571h-164l86 543q8 55 11 91q1 15 1 32q0 22 -2 47q-4 43 -21.5 67.5t-53 41t-91.5 16.5q-66 0 -116 -25t-79.5 -59.5t-52 -90t-33 -99.5 t-20.5 -107l-72 -457h-163z" />
<glyph unicode="o" horiz-adv-x="1150" d="M145 479q33 213 204 361.5t383 148.5q212 -1 335 -149q97 -117 97 -274q0 -42 -7 -87q-33 -211 -204 -358.5t-382 -147.5q-211 -1 -335 147q-98 117 -98 275q0 41 7 84zM309 481q-5 -33 -6 -65q0 -108 63 -188q80 -103 229.5 -103t262.5 103.5t135 252.5q6 36 6 69 q0 106 -61 184q-80 104 -229.5 104t-262 -103.5t-137.5 -253.5z" />
<glyph unicode="p" horiz-adv-x="1181" d="M61 -541l238 1504h164l-21 -138h4q150 164 359 164q135 0 230 -72.5t132 -187.5q24 -75 24 -158q0 -45 -7 -92q-33 -213 -182.5 -359.5t-360.5 -146.5q-98 0 -178 42t-127 120h-4l-107 -676h-164zM381 492q-7 -40 -7 -78q0 -101 50 -180q68 -109 215 -109 q152 0 253 105.5t126 258.5q6 36 6 70q0 104 -55 179q-72 100 -219 100q-139 0 -243 -102.5t-126 -243.5z" />
<glyph unicode="q" horiz-adv-x="1181" d="M150 477q33 209 184 360.5t358 151.5q98 0 178 -42t127 -122h4l21 138h164l-238 -1504h-164l107 676h-4q-70 -78 -163 -120t-192 -42q-211 0 -313 147q-77 110 -77 258q0 47 8 99zM319 492q-7 -40 -7 -78q0 -101 50 -180q68 -109 216 -109q152 0 253 105.5t125 258.5 q6 36 6 70q0 104 -55 179q-72 100 -219 100q-139 0 -242.5 -102.5t-126.5 -243.5z" />
<glyph unicode="r" horiz-adv-x="686" d="M147 0l152 963h164l-17 -105h5q63 68 112 99.5t123 31.5q68 0 139 -45l-102 -149q-2 2 -12.5 10t-14.5 11t-13 8t-15 7.5t-15.5 4.5t-19.5 2q-51 0 -93 -27t-65.5 -61.5t-43 -90t-28 -92.5t-16.5 -86l-76 -481h-164z" />
<glyph unicode="s" horiz-adv-x="817" d="M111 217l155 62q23 -76 59.5 -115t112.5 -39q66 0 117 41t61 106q2 11 2 22q0 36 -20 64q-26 37 -71.5 57.5t-97.5 46t-96 52.5q-43 27 -67 79q-16 36 -17 83q0 20 3 41q20 119 115.5 195.5t216.5 76.5q80 0 143.5 -50t83.5 -128l-149 -72q-10 41 -42 70t-73 29 q-45 0 -87 -31t-48 -76q-4 -18 -1 -33.5t15 -30t22.5 -24.5t35 -22.5t35.5 -18.5t44 -20.5t45 -18.5q96 -43 146 -105q37 -45 37 -114q0 -26 -5 -57q-20 -135 -129.5 -224.5t-244.5 -89.5q-121 0 -201 64.5t-100 179.5z" />
<glyph unicode="t" horiz-adv-x="491" d="M164 0l129 811h-100l22 152h100l56 346h164l-56 -346h172l-22 -152h-172l-129 -811h-164z" />
<glyph unicode="u" horiz-adv-x="1048" d="M209 408l86 555h164l-84 -537q-7 -55 -11 -94l-2 -28q0 -26 4 -53q6 -42 25 -67.5t56.5 -42t97.5 -16.5q72 0 121 22.5t76.5 68.5t41 92t25.5 118l84 537h164l-86 -555q-70 -434 -451 -434l-1 -1q-321 0 -321 310q0 57 11 125z" />
<glyph unicode="v" horiz-adv-x="948" d="M154 963h186l184 -648l389 648h185l-633 -1026z" />
<glyph unicode="w" horiz-adv-x="1556" d="M158 963h186l182 -652l414 725l186 -725l390 652h186l-639 -1031l-184 717l-410 -717z" />
<glyph unicode="x" horiz-adv-x="1019" d="M2 0l492 512l-281 451h201l200 -328l304 328h204l-422 -451l318 -512h-199l-244 391l-368 -391h-205z" />
<glyph unicode="y" horiz-adv-x="1019" d="M41 -541l412 631l-306 873h191l231 -691l420 691h187l-949 -1504h-186z" />
<glyph unicode="z" horiz-adv-x="1062" d="M20 0l824 811h-565l22 152h895l-819 -811h663l-24 -152h-996z" />
<glyph unicode="{" horiz-adv-x="684" d="M182 496l21 131q102 31 142 103.5t65 223.5l59 383q18 115 92 196t127 81h150l-25 -152h-82q-49 0 -66.5 -34.5t-31.5 -120.5l-62 -387q-12 -84 -42.5 -154t-67.5 -112t-60.5 -62.5t-42.5 -30.5q12 -6 24.5 -20.5t33 -44t31 -69.5t17.5 -98.5t-5 -127.5l-62 -385 q-16 -70 -9 -113t58 -43h82l-24 -152h-150q-53 0 -100 81t-31 196l62 381q14 90 16 155.5t-25.5 110t-93.5 64.5z" />
<glyph unicode="|" horiz-adv-x="1167" d="M434 -438l326 2048h160l-326 -2048h-160z" />
<glyph unicode="}" horiz-adv-x="684" d="M25 -492l24 152h82q49 0 66.5 35t31.5 121l62 385q12 84 43 154.5t66.5 112.5t60 62.5t41.5 30.5q-10 6 -22.5 20.5t-33 44t-32 68.5t-18.5 97.5t7 128.5l62 387q16 70 9 112.5t-58 42.5h-82l24 152h150q53 0 100 -81t29 -196l-59 -383q-14 -90 -16.5 -154.5t25.5 -108.5 t91 -64l-21 -131q-100 -31 -140 -105t-64 -225l-62 -381q-16 -115 -90 -196t-127 -81h-149z" />
<glyph unicode="~" d="M201 410q156 301 331 301q82 0 209 -93q14 -12 45 -35.5t49.5 -37t43 -25.5t43.5 -12q43 0 90 56.5t88 142.5l129 -58q-66 -135 -152 -218t-180 -83q-74 0 -195 90q-12 8 -33.5 24.5t-31.5 24t-27.5 19.5t-29 18t-24.5 12.5t-25.5 9.5t-24.5 3q-41 0 -86 -54.5 t-88 -142.5z" />
<glyph unicode="&#xa1;" horiz-adv-x="692" d="M170 -582l195 1231h167l-194 -1231h-168zM371 877q6 47 45 79.5t87 32.5t75.5 -32.5t21.5 -79.5q-8 -47 -47 -82t-86 -35t-76 34.5t-20 82.5z" />
<glyph unicode="&#xa2;" d="M317 778q31 193 175.5 340.5t336.5 169.5l33 217h135l-32 -213q131 -12 231 -90l-35 -217h-4q-84 135 -217 156l-111 -705q145 20 271 164h4l-35 -219q-145 -88 -264 -96l-37 -230h-135l37 232q-176 20 -278.5 164.5t-74.5 326.5zM487 791q-20 -127 36 -227.5t171 -125.5 l111 699q-121 -23 -209 -124.5t-109 -221.5z" />
<glyph unicode="&#xa3;" d="M86 59q152 197 330 199q80 92 96 191q8 55 0 100h-260l22 131h205l-28 76q-4 14 -20.5 59t-23 62.5t-16.5 57.5t-13 65.5t-3 61.5t6 71q29 186 182.5 312t341.5 126q199 0 302.5 -132t74.5 -331l-176 -45q12 66 5 128t-29.5 110.5t-73 77t-123.5 28.5q-119 0 -215.5 -80 t-114.5 -199q-10 -72 7.5 -147.5t55 -165.5t50.5 -135h290l-22 -131h-246q6 -53 0 -92q-16 -104 -102 -221l10 -5q4 -2 80 -30.5t124 -43t79 -14.5q61 0 110 42t101 112l125 -84q-61 -102 -154.5 -170t-198.5 -68q-84 0 -239 60q-8 4 -37 14t-40 14.5t-35 11.5t-37 10 t-32.5 6t-35.5 3q-111 0 -203 -125z" />
<glyph unicode="&#xa4;" d="M88 571h148q4 -268 137 -424q150 -172 434 -172q207 0 373 88l28 185q-123 -74 -182 -90q-74 -25 -201 -25q-205 0 -309 131q-94 113 -104 307h649l53 111h-700q4 61 10 90l6 37h737l52 111h-762q68 213 202 342q154 150 365 149q133 0 203 -27q61 -25 145 -98l66 154 q-133 131 -379 131q-291 0 -502 -193q-186 -174 -272 -458h-109l-49 -111h131l-8 -43q-8 -57 -10 -84h-101z" />
<glyph unicode="&#xa5;" d="M143 524l21 131h485l-80 205h-372l20 131h297l-231 553h198l287 -684l500 684h198l-403 -553h297l-21 -131h-372l-146 -205h486l-21 -131h-485l-84 -524h-172l84 524h-486z" />
<glyph unicode="&#xa6;" horiz-adv-x="1167" d="M475 -182l82 512h160l-82 -512h-160zM637 842l82 512h160l-82 -512h-160z" />
<glyph unicode="&#xa7;" horiz-adv-x="1212" d="M217 8h166q-18 -109 22.5 -173t147.5 -64q100 0 163.5 53t80.5 151q6 43 -3.5 79t-22.5 57.5t-49 43t-56.5 31t-69.5 27.5q-8 4 -51 22.5t-61.5 27.5t-48 26.5t-50.5 36.5q-109 98 -82 270q18 115 88 203t180 131q-166 90 -135 289q25 156 155 254t288 98q84 0 159.5 -37 t112.5 -100q53 -98 31 -265h-164q27 244 -166 244q-94 0 -164 -56.5t-86 -150.5q-6 -43 4 -76.5t25.5 -54t52.5 -42t62.5 -32t74.5 -28.5q27 -10 39 -15q61 -25 102.5 -48t81 -64t53 -104.5t1.5 -149.5q-35 -217 -269 -328q166 -92 134 -299q-25 -162 -148 -257t-289 -95 q-188 0 -260 102.5t-49 292.5zM475 598q-14 -94 41 -160.5t148.5 -66.5t171 66.5t92 160.5t-41 159.5t-149.5 65.5t-171 -65.5t-91 -159.5z" />
<glyph unicode="&#xa8;" horiz-adv-x="956" d="M378 1333q7 47 44 79t83 32t73.5 -32t20.5 -79t-45 -78.5t-84 -31.5t-72.5 31.5t-19.5 78.5zM781 1333q7 47 44 79t83 32t74 -32t20.5 -79t-45 -78.5t-84 -31.5t-73 31.5t-19.5 78.5z" />
<glyph unicode="&#xa9;" horiz-adv-x="1638" d="M139 772q35 219 170 402.5t337 290t422 106.5t388 -106.5t246 -290t43 -402.5t-170 -402.5t-337 -290t-423 -106.5t-389 106.5t-245 290t-42 402.5zM261 772q-30 -184 39 -341t211 -246t323.5 -89t351.5 89t287.5 246t147.5 341t-39 341t-211 246t-322.5 89t-351.5 -89 t-288.5 -246t-147.5 -341zM528 778q33 203 173.5 332t345.5 129q143 0 233 -81t94 -222h-125q-4 84 -63.5 132t-161.5 48q-154 0 -252 -100.5t-119 -233.5q-25 -145 47 -242.5t222 -97.5q100 0 171.5 49.5t108.5 137.5h125q-41 -141 -162 -225.5t-262 -84.5 q-199 0 -302 132.5t-73 326.5z" />
<glyph unicode="&#xaa;" horiz-adv-x="708" d="M244 1264q20 129 116.5 218t231.5 89q131 0 199 -98h4l12 81h106l-90 -577h-106l12 80h-4q-96 -96 -231 -96q-133 0 -202 89t-48 214zM350 1272q-14 -90 32 -155.5t140 -65.5q98 0 164 63.5t80 155.5q14 90 -33 150.5t-141 60.5q-92 0 -159.5 -62.5t-82.5 -146.5z" />
<glyph unicode="&#xab;" horiz-adv-x="1024" d="M162 492l413 436l95 -86l-332 -350l223 -340l-123 -84zM510 492l414 436l94 -86l-332 -350l223 -340l-123 -84z" />
<glyph unicode="&#xac;" d="M231 604l25 160h991l-88 -553h-160l64 393h-832z" />
<glyph unicode="&#xad;" horiz-adv-x="425" d="M70 418l24 151h420l-25 -151h-419z" />
<glyph unicode="&#xae;" horiz-adv-x="1638" d="M139 772q35 219 170 402.5t337 290t422 106.5t388 -106.5t246 -290t43 -402.5t-170 -402.5t-337 -290t-423 -106.5t-389 106.5t-245 290t-42 402.5zM261 772q-30 -184 39 -341t211 -246t323.5 -89t351.5 89t287.5 246t147.5 341t-39 341t-211 246t-322.5 89t-351.5 -89 t-288.5 -246t-147.5 -341zM573 340l140 874h381q63 0 113 -10t93 -34.5t60.5 -71.5t7.5 -115q-36 -232 -315 -240l200 -403h-147l-199 403h-147l-64 -403h-123zM780 866h148q10 0 43 -1t50 -1t48 2t50.5 7.5t44 13.5t39 20.5t26.5 33t16 44.5q16 106 -196 107h-234z" />
<glyph unicode="&#xaf;" horiz-adv-x="1021" d="M360 1257l23 140h700l-22 -140h-701z" />
<glyph unicode="&#xb0;" horiz-adv-x="819" d="M303 1264q18 125 122.5 216t231.5 91t203 -90t58 -217q-20 -127 -125 -217.5t-232 -90.5t-202.5 90.5t-55.5 217.5zM401 1264q-14 -88 37 -148.5t140 -60.5q86 0 156.5 60.5t84.5 148.5q12 86 -39 147.5t-139 61.5q-86 0 -156.5 -61.5t-83.5 -147.5z" />
<glyph unicode="&#xb1;" d="M135 0l25 160h991l-25 -160h-991zM221 547l27 160h416l49 313h159l-49 -313h416l-27 -160h-415l-49 -314h-160l49 314h-416z" />
<glyph unicode="&#xb2;" horiz-adv-x="755" d="M154 629l548 512q68 63 82 155q12 76 -32.5 122t-128.5 46q-88 0 -146.5 -49t-73.5 -131h-122q23 123 123 205t231 82q135 0 214 -77t58 -198q-18 -123 -96 -194l-395 -367h403l-16 -106h-649z" />
<glyph unicode="&#xb3;" horiz-adv-x="755" d="M211 868h123q-10 -70 34 -109.5t121 -39.5q80 0 139.5 49t71.5 125q12 80 -35 127t-139 43l17 106q84 0 141 38t70 106q10 70 -34 110.5t-108 40.5q-66 0 -111.5 -35.5t-62.5 -101.5h-123q31 113 113 178.5t203 65.5q125 0 194.5 -70.5t51.5 -183.5q-10 -63 -53.5 -118.5 t-108.5 -84.5q68 -29 93.5 -90t14.5 -137q-20 -129 -118.5 -202t-237.5 -73q-123 0 -197.5 72t-58.5 184z" />
<glyph unicode="&#xb4;" horiz-adv-x="733" d="M348 1188l297 336l160 -78l-365 -316z" />
<glyph unicode="&#xb6;" horiz-adv-x="1212" d="M283 1018q10 125 82.5 245.5t191.5 200.5t248 80h532l-20 -133h-119l-272 -1724h-133l272 1724h-166l-272 -1724h-133l141 893q-176 0 -273.5 116.5t-78.5 321.5z" />
<glyph unicode="&#xb7;" horiz-adv-x="630" d="M285 524q6 47 45 80t86 33t75.5 -33t22.5 -80q-8 -47 -47 -81.5t-87 -34.5t-76 34.5t-19 81.5z" />
<glyph unicode="&#xb8;" horiz-adv-x="665" d="M104 -350l244 303l144 -62l-283 -299z" />
<glyph unicode="&#xb9;" horiz-adv-x="755" d="M463 1448l76 106h229l-145 -925h-123l129 819h-166z" />
<glyph unicode="&#xba;" horiz-adv-x="690" d="M217 1264q20 127 130 217t248 90t220 -90t62 -217t-131 -215t-248.5 -88t-219 88t-61.5 215zM324 1266q-14 -90 39 -152.5t150 -62.5t170 62.5t87 152.5t-39 152.5t-150.5 62.5t-170 -62.5t-86.5 -152.5z" />
<glyph unicode="&#xbb;" horiz-adv-x="1024" d="M164 152l330 340l-222 350l123 86l275 -436l-412 -424zM512 152l330 340l-221 350l122 86l275 -436l-412 -424z" />
<glyph unicode="&#xbc;" horiz-adv-x="1892" d="M432 23l1143 1548l84 -49l-1145 -1549zM434 1448l76 106h229l-145 -925h-123l129 819h-166zM965 150l753 829h-2h4l-114 -723h123l-17 -106h-123l-24 -150h-123l24 150h-501zM1188 256h295l61 389h-4z" />
<glyph unicode="&#xbd;" horiz-adv-x="1892" d="M340 23l1143 1548l84 -49l-1145 -1549zM434 1448l76 106h229l-145 -925h-123l129 819h-166zM1038 0l551 512q66 63 82 156q12 76 -34 122t-128 46q-90 0 -148 -49.5t-71 -131.5h-123q23 123 123.5 205t231.5 82q135 0 212.5 -77t59.5 -197q-20 -123 -96 -195l-398 -367 h404l-16 -106h-650z" />
<glyph unicode="&#xbe;" horiz-adv-x="1892" d="M301 868h123q-10 -70 34 -109.5t122 -39.5q80 0 139 49t72 125q12 80 -35.5 127t-139.5 43l17 106q84 0 141 38t70 106q10 70 -34 110.5t-108 40.5q-66 0 -111.5 -35.5t-62.5 -101.5h-122q31 113 112.5 178.5t202.5 65.5q125 0 194.5 -70.5t51.5 -183.5 q-10 -63 -53.5 -118.5t-108.5 -84.5q68 -29 93.5 -90t14.5 -137q-20 -129 -118.5 -202t-237.5 -73q-123 0 -197.5 72t-58.5 184zM551 23l1143 1548l84 -49l-1145 -1549zM1006 150l753 829h-2h4l-114 -723h122l-16 -106h-123l-24 -150h-123l24 150h-501zM1229 256h295l61 389 h-4z" />
<glyph unicode="&#xbf;" horiz-adv-x="999" d="M90 -231q12 78 52 151.5t102 122.5q14 10 28.5 19.5t32 18.5t29.5 15t34.5 14.5t33 11.5t36 11t31.5 10t34.5 10.5t33.5 8.5q76 20 124 59t60 111q10 70 -32 117t-111 47q-80 0 -131.5 -56.5t-65.5 -140.5h-166q18 150 130 252t261 102q141 0 222 -96t59 -238 q-20 -127 -105.5 -198.5t-226.5 -114.5q-8 -2 -29 -8q-49 -14 -74.5 -23.5t-65.5 -28t-60.5 -40t-40 -56t-27.5 -79.5q-14 -94 36 -153.5t142 -59.5q86 0 152.5 58t79.5 144q8 49 4 99h170l-8 -109q-25 -156 -151 -253t-282.5 -97t-245.5 105.5t-65 263.5zM527.5 874.5 q7.5 47.5 46 81t87 33.5t76 -33.5t20.5 -81t-46 -81t-86 -33.5t-76 33.5t-21.5 81z" />
<glyph unicode="&#xc0;" horiz-adv-x="1431" d="M12 0l969 1618l438 -1618h-190l-113 438h-659l-256 -438h-189zM551 598h522l-160 619zM741 1976l185 78l190 -336l-112 -57z" />
<glyph unicode="&#xc1;" horiz-adv-x="1431" d="M12 0l969 1618l438 -1618h-190l-113 438h-659l-256 -438h-189zM551 598h522l-160 619zM864 1718l297 336l160 -78l-365 -315z" />
<glyph unicode="&#xc2;" horiz-adv-x="1431" d="M12 0l969 1618l438 -1618h-190l-113 438h-659l-256 -438h-189zM551 598h522l-160 619zM676 1767l362 273l281 -273l-133 -92l-178 174l-230 -174z" />
<glyph unicode="&#xc3;" horiz-adv-x="1431" d="M12 0l969 1618l438 -1618h-190l-113 438h-659l-256 -438h-189zM551 598h522l-160 619zM645 1815q55 76 110.5 118.5t125.5 42.5q72 0 157 -47q10 -4 34 -16t34 -16.5t26.5 -9.5t30.5 -5q59 0 129 98l84 -77q-41 -72 -106.5 -119t-136.5 -47q-55 0 -146 47q-96 45 -137 45 q-27 0 -50.5 -15.5t-36 -32.5t-30.5 -46z" />
<glyph unicode="&#xc4;" horiz-adv-x="1431" d="M12 0l969 1618l438 -1618h-190l-113 438h-659l-256 -438h-189zM551 598h522l-160 619zM699.5 1865q7.5 46 44 77.5t82.5 31.5t74 -32.5t20.5 -78.5t-45 -78t-84 -32t-73 33t-19 79zM1103 1865q7 46 44 77.5t83 31.5t73.5 -32.5t20.5 -78.5t-45 -78t-84 -32t-72.5 33 t-19.5 79z" />
<glyph unicode="&#xc5;" horiz-adv-x="1431" d="M12 0l969 1618l438 -1618h-190l-113 438h-659l-256 -438h-189zM551 598h522l-160 619zM813 1862q12 82 80.5 140t150.5 58t131.5 -58t36.5 -140q-12 -84 -79.5 -142.5t-150.5 -58.5t-132 59.5t-37 141.5zM915.5 1862q-6.5 -39 18 -69t64.5 -30t73 29t39 70t-17.5 68.5 t-63.5 27.5t-73.5 -28.5t-40 -67.5z" />
<glyph unicode="&#xc6;" horiz-adv-x="2048" d="M12 0l932 1544h678l45 -160h-625l119 -460h608l48 -160h-611l156 -604h627l43 -160h-805l-113 434h-659l-252 -434h-191zM553 594h516l-158 608z" />
<glyph unicode="&#xc7;" horiz-adv-x="1468" d="M188 766q35 217 172.5 402.5t340 294t419.5 108.5q259 0 439 -152l-35 -213q-78 96 -191.5 150.5t-247.5 54.5q-168 0 -325.5 -88t-264 -235.5t-133 -315.5t34 -315.5t191.5 -235.5t299 -88q129 0 260 55.5t239 149.5l-32 -213q-233 -152 -486 -152q-215 0 -384 105.5 t-248.5 289t-47.5 398.5zM506 -350l244 303l143 -62l-283 -299z" />
<glyph unicode="&#xc8;" horiz-adv-x="1093" d="M156 0l243 1544h801l-24 -160h-629l-72 -458h610l-26 -160h-610l-97 -606h629l-25 -160h-800zM602 1976l184 78l191 -336l-113 -57z" />
<glyph unicode="&#xc9;" horiz-adv-x="1093" d="M156 0l243 1544h801l-24 -160h-629l-72 -458h610l-26 -160h-610l-97 -606h629l-25 -160h-800zM694 1718l297 336l160 -78l-365 -315z" />
<glyph unicode="&#xca;" horiz-adv-x="1093" d="M156 0l243 1544h801l-24 -160h-629l-72 -458h610l-26 -160h-610l-97 -606h629l-25 -160h-800zM506 1767l362 273l281 -273l-133 -92l-178 174l-230 -174z" />
<glyph unicode="&#xcb;" horiz-adv-x="1093" d="M156 0l243 1544h801l-24 -160h-629l-72 -458h610l-26 -160h-610l-97 -606h629l-25 -160h-800zM531.5 1865q7.5 46 44 77.5t83 31.5t74 -32.5t20 -78.5t-45 -78t-83.5 -32t-73 33t-19.5 79zM935 1865q7 46 44 77.5t83 31.5t73.5 -32.5t20.5 -78.5t-45 -78t-84 -32 t-72.5 33t-19.5 79z" />
<glyph unicode="&#xcc;" horiz-adv-x="489" d="M160 0l243 1544h172l-243 -1544h-172zM301 1976l184 78l191 -336l-113 -57z" />
<glyph unicode="&#xcd;" horiz-adv-x="489" d="M160 0l243 1544h172l-243 -1544h-172zM362 1718l297 336l160 -78l-364 -315z" />
<glyph unicode="&#xce;" horiz-adv-x="489" d="M160 0l243 1544h172l-243 -1544h-172zM205 1767l362 273l281 -273l-133 -92l-178 174l-230 -174z" />
<glyph unicode="&#xcf;" horiz-adv-x="489" d="M160 0l243 1544h172l-243 -1544h-172zM228.5 1865q7.5 46 44 77.5t82.5 31.5t74 -32.5t20.5 -78.5t-45 -78t-84 -32t-73 33t-19 79zM632 1865q7 46 44 77.5t83 31.5t73.5 -32.5t20.5 -78.5t-45 -78t-84 -32t-72.5 33t-19.5 79z" />
<glyph unicode="&#xd0;" horiz-adv-x="1388" d="M121 758l22 147h156l100 639h291q195 0 329 -39t245 -147q221 -221 163 -588q-57 -350 -344 -575q-147 -115 -293.5 -155t-347.5 -40h-286l120 758h-155zM352 160h125q158 0 279 33.5t235 125.5q221 180 264 453q20 135 -11.5 256t-115.5 207q-86 88 -194.5 118.5 t-261.5 30.5h-125l-76 -479h274l-22 -147h-274z" />
<glyph unicode="&#xd1;" horiz-adv-x="1708" d="M166 0l256 1610l1003 -1262l189 1196h172l-254 -1614l-1006 1260l-188 -1190h-172zM782 1815q55 76 110.5 118.5t125.5 42.5q72 0 158 -47q10 -4 33.5 -16t33.5 -16.5t26.5 -9.5t30.5 -5q59 0 130 98l83 -77q-41 -72 -106.5 -119t-136.5 -47q-55 0 -146 47 q-96 45 -137 45q-27 0 -50.5 -15.5t-36 -32.5t-30.5 -46z" />
<glyph unicode="&#xd2;" horiz-adv-x="1765" d="M201 770q33 217 171 401.5t340.5 292t419 107.5t385.5 -107.5t247.5 -292t45.5 -401.5q-35 -217 -173 -401.5t-339.5 -290t-418.5 -105.5t-386 105.5t-248 290t-44 401.5zM373 772q-29 -172 32.5 -318.5t193.5 -233.5t304 -87q262 0 477 188.5t258 450.5 q27 172 -33.5 319.5t-192.5 233.5t-306 86q-264 0 -478 -187.5t-255 -451.5zM907 1976l185 78l190 -336l-113 -57z" />
<glyph unicode="&#xd3;" horiz-adv-x="1765" d="M201 770q33 217 171 401.5t340.5 292t419 107.5t385.5 -107.5t247.5 -292t45.5 -401.5q-35 -217 -173 -401.5t-339.5 -290t-418.5 -105.5t-386 105.5t-248 290t-44 401.5zM373 772q-29 -172 32.5 -318.5t193.5 -233.5t304 -87q262 0 477 188.5t258 450.5 q27 172 -33.5 319.5t-192.5 233.5t-306 86q-264 0 -478 -187.5t-255 -451.5zM1030 1718l297 336l160 -78l-365 -315z" />
<glyph unicode="&#xd4;" horiz-adv-x="1765" d="M201 770q33 217 171 401.5t340.5 292t419 107.5t385.5 -107.5t247.5 -292t45.5 -401.5q-35 -217 -173 -401.5t-339.5 -290t-418.5 -105.5t-386 105.5t-248 290t-44 401.5zM373 772q-29 -172 32.5 -318.5t193.5 -233.5t304 -87q262 0 477 188.5t258 450.5 q27 172 -33.5 319.5t-192.5 233.5t-306 86q-264 0 -478 -187.5t-255 -451.5zM842 1767l362 273l281 -273l-133 -92l-178 174l-230 -174z" />
<glyph unicode="&#xd5;" horiz-adv-x="1765" d="M201 770q33 217 171 401.5t340.5 292t419 107.5t385.5 -107.5t247.5 -292t45.5 -401.5q-35 -217 -173 -401.5t-339.5 -290t-418.5 -105.5t-386 105.5t-248 290t-44 401.5zM373 772q-29 -172 32.5 -318.5t193.5 -233.5t304 -87q262 0 477 188.5t258 450.5 q27 172 -33.5 319.5t-192.5 233.5t-306 86q-264 0 -478 -187.5t-255 -451.5zM811 1815q55 76 110.5 118.5t125.5 42.5q72 0 157 -47q10 -4 34 -16t34 -16.5t26.5 -9.5t30.5 -5q59 0 129 98l84 -77q-41 -72 -106.5 -119t-137.5 -47q-55 0 -145 47q-96 45 -137 45 q-27 0 -50.5 -15.5t-36 -32.5t-30.5 -46z" />
<glyph unicode="&#xd6;" horiz-adv-x="1765" d="M201 770q33 217 171 401.5t340.5 292t419 107.5t385.5 -107.5t247.5 -292t45.5 -401.5q-35 -217 -173 -401.5t-339.5 -290t-418.5 -105.5t-386 105.5t-248 290t-44 401.5zM373 772q-29 -172 32.5 -318.5t193.5 -233.5t304 -87q262 0 477 188.5t258 450.5 q27 172 -33.5 319.5t-192.5 233.5t-306 86q-264 0 -478 -187.5t-255 -451.5zM867 1865q7 46 44 77.5t83 31.5t74 -32.5t20.5 -78.5t-45 -78t-84 -32t-73 33t-19.5 79zM1271 1865q7 46 44 77.5t83 31.5t73.5 -32.5t20.5 -78.5t-45 -78t-84 -32t-72.5 33t-19.5 79z" />
<glyph unicode="&#xd7;" d="M158 141l444 383l-323 383l131 113l321 -383l443 383l96 -113l-443 -383l322 -383l-133 -112l-320 383l-444 -383z" />
<glyph unicode="&#xd8;" horiz-adv-x="1765" d="M98 76l211 182q-156 219 -108 512q33 217 171 401.5t340.5 292t417.5 107.5q293 0 486 -187l217 187l80 -92l-217 -187q162 -223 114 -522q-35 -217 -173 -401.5t-339.5 -290t-418.5 -105.5q-295 0 -492 191l-215 -184zM373 772q-36 -221 73 -395l1037 893 q-147 141 -377 141q-264 0 -478 -187.5t-255 -451.5zM524 283q152 -150 379 -150q262 0 477 188.5t258 450.5q36 228 -77 404z" />
<glyph unicode="&#xd9;" horiz-adv-x="1402" d="M225 409.5q2 67.5 19 168.5l151 966h172l-145 -919q-12 -88 -17.5 -125t0 -105.5t31.5 -113.5q37 -68 118 -108t169 -40q84 0 173 37t153 100q43 43 70.5 105.5t36.5 105.5t22 119q2 16 2 25l145 919h172l-151 -966q-25 -147 -65 -243.5t-138 -184.5q-94 -84 -210 -130.5 t-235 -46.5q-111 0 -210 41t-164 117q-55 61 -78 136t-21 142.5zM727 1976l184 78l191 -336l-113 -57z" />
<glyph unicode="&#xda;" horiz-adv-x="1402" d="M225 409.5q2 67.5 19 168.5l151 966h172l-145 -919q-12 -88 -17.5 -125t0 -105.5t31.5 -113.5q37 -68 118 -108t169 -40q84 0 173 37t153 100q43 43 70.5 105.5t36.5 105.5t22 119q2 16 2 25l145 919h172l-151 -966q-25 -147 -65 -243.5t-138 -184.5q-94 -84 -210 -130.5 t-235 -46.5q-111 0 -210 41t-164 117q-55 61 -78 136t-21 142.5zM850 1718l297 336l160 -78l-365 -315z" />
<glyph unicode="&#xdb;" horiz-adv-x="1402" d="M225 409.5q2 67.5 19 168.5l151 966h172l-145 -919q-12 -88 -17.5 -125t0 -105.5t31.5 -113.5q37 -68 118 -108t169 -40q84 0 173 37t153 100q43 43 70.5 105.5t36.5 105.5t22 119q2 16 2 25l145 919h172l-151 -966q-25 -147 -65 -243.5t-138 -184.5q-94 -84 -210 -130.5 t-235 -46.5q-111 0 -210 41t-164 117q-55 61 -78 136t-21 142.5zM662 1767l362 273l281 -273l-134 -92l-178 174l-229 -174z" />
<glyph unicode="&#xdc;" horiz-adv-x="1402" d="M225 409.5q2 67.5 19 168.5l151 966h172l-145 -919q-12 -88 -17.5 -125t0 -105.5t31.5 -113.5q37 -68 118 -108t169 -40q84 0 173 37t153 100q43 43 70.5 105.5t36.5 105.5t22 119q2 16 2 25l145 919h172l-151 -966q-25 -147 -65 -243.5t-138 -184.5q-94 -84 -210 -130.5 t-235 -46.5q-111 0 -210 41t-164 117q-55 61 -78 136t-21 142.5zM685 1865q7 46 44 77.5t83 31.5t73.5 -32.5t20.5 -78.5t-45 -78t-84 -32t-72.5 33t-19.5 79zM1088.5 1865q7.5 46 44 77.5t83 31.5t74 -32.5t20.5 -78.5t-45 -78t-84 -32t-73 33t-19.5 79z" />
<glyph unicode="&#xdd;" horiz-adv-x="1214" d="M260 1544h199l284 -688l502 688h199l-645 -880l-105 -664h-172l105 664zM797 1718l297 336l159 -78l-364 -315z" />
<glyph unicode="&#xde;" horiz-adv-x="1030" d="M156 0l243 1544h172l-45 -287h82q84 0 136.5 -4t120 -22.5t114.5 -54.5q74 -59 104.5 -152.5t14.5 -200.5q-16 -96 -68.5 -184t-132.5 -147q-141 -102 -383 -103h-125l-61 -389h-172zM414 549h114q352 0 398 278q12 74 -4.5 125.5t-47 79t-86 43t-103.5 19.5t-120 4h-63z " />
<glyph unicode="&#xdf;" horiz-adv-x="1181" d="M147 0l129 811h-90l23 152h90l47 294q35 215 131 316q66 70 160 106.5t188 36.5q168 0 265.5 -108.5t70.5 -276.5q-14 -94 -73.5 -176t-145.5 -123q139 -51 208 -191.5t44 -301.5q-25 -156 -127 -286t-248.5 -204t-302.5 -76l25 152q176 10 317 128t168 292 q14 88 -11.5 169t-84.5 134q-88 76 -260 90l22 152q117 -2 203 66.5t104 182.5q14 100 -43 163t-157 63q-72 0 -135.5 -31t-96.5 -92q-37 -66 -69 -260l-187 -1182h-164z" />
<glyph unicode="&#xe0;" horiz-adv-x="1181" d="M150 479q35 213 184 361.5t360 148.5q96 0 175 -43t128 -121h4l21 138h164l-152 -963h-164l21 133h-4q-152 -160 -357 -160q-137 0 -232 72t-132 185.5t-16 248.5zM319 492q-25 -150 43 -258.5t216 -108.5q152 0 253 105.5t125 258.5q23 150 -49 249.5t-219 99.5 q-139 0 -242.5 -102.5t-126.5 -243.5zM532 1446l185 78l190 -336l-112 -58z" />
<glyph unicode="&#xe1;" horiz-adv-x="1181" d="M150 479q35 213 184 361.5t360 148.5q96 0 175 -43t128 -121h4l21 138h164l-152 -963h-164l21 133h-4q-152 -160 -357 -160q-137 0 -232 72t-132 185.5t-16 248.5zM319 492q-25 -150 43 -258.5t216 -108.5q152 0 253 105.5t125 258.5q23 150 -49 249.5t-219 99.5 q-139 0 -242.5 -102.5t-126.5 -243.5zM655 1188l297 336l160 -78l-364 -316z" />
<glyph unicode="&#xe2;" horiz-adv-x="1181" d="M150 479q35 213 184 361.5t360 148.5q96 0 175 -43t128 -121h4l21 138h164l-152 -963h-164l21 133h-4q-152 -160 -357 -160q-137 0 -232 72t-132 185.5t-16 248.5zM319 492q-25 -150 43 -258.5t216 -108.5q152 0 253 105.5t125 258.5q23 150 -49 249.5t-219 99.5 q-139 0 -242.5 -102.5t-126.5 -243.5zM467 1237l362 272l281 -272l-133 -92l-178 174l-230 -174z" />
<glyph unicode="&#xe3;" horiz-adv-x="1181" d="M150 479q35 213 184 361.5t360 148.5q96 0 175 -43t128 -121h4l21 138h164l-152 -963h-164l21 133h-4q-152 -160 -357 -160q-137 0 -232 72t-132 185.5t-16 248.5zM319 492q-25 -150 43 -258.5t216 -108.5q152 0 253 105.5t125 258.5q23 150 -49 249.5t-219 99.5 q-139 0 -242.5 -102.5t-126.5 -243.5zM436 1284q55 76 110.5 119t125.5 43q72 0 157 -47q10 -4 34 -16.5t34 -16.5t26.5 -9t30.5 -5q59 0 129 98l84 -78q-41 -72 -106.5 -119t-136.5 -47q-55 0 -146 47q-96 45 -137 45q-27 0 -50.5 -15t-36 -32.5t-30.5 -46.5z" />
<glyph unicode="&#xe4;" horiz-adv-x="1181" d="M150 479q35 213 184 361.5t360 148.5q96 0 175 -43t128 -121h4l21 138h164l-152 -963h-164l21 133h-4q-152 -160 -357 -160q-137 0 -232 72t-132 185.5t-16 248.5zM319 492q-25 -150 43 -258.5t216 -108.5q152 0 253 105.5t125 258.5q23 150 -49 249.5t-219 99.5 q-139 0 -242.5 -102.5t-126.5 -243.5zM490.5 1333q7.5 47 44 79t83 32t74 -32t20.5 -79t-45 -78.5t-84 -31.5t-73 31.5t-19.5 78.5zM894 1333q7 47 44 79t83 32t73.5 -32t20.5 -79t-45 -78.5t-84 -31.5t-72.5 31.5t-19.5 78.5z" />
<glyph unicode="&#xe5;" horiz-adv-x="1181" d="M150 479q35 213 184 361.5t360 148.5q96 0 175 -43t128 -121h4l21 138h164l-152 -963h-164l21 133h-4q-152 -160 -357 -160q-137 0 -232 72t-132 185.5t-16 248.5zM319 492q-25 -150 43 -258.5t216 -108.5q152 0 253 105.5t125 258.5q23 150 -49 249.5t-219 99.5 q-139 0 -242.5 -102.5t-126.5 -243.5zM604 1331q12 82 81 140.5t151 58.5t131 -58.5t37 -140.5q-12 -84 -80 -142.5t-151 -58.5t-132 59.5t-37 141.5zM706.5 1330q-6.5 -40 18.5 -68.5t64.5 -28.5t72.5 28.5t39 69.5t-17.5 68.5t-63.5 27.5t-73.5 -28.5t-40 -68.5z" />
<glyph unicode="&#xe6;" horiz-adv-x="1726" d="M104 283q16 106 90 181t167.5 106.5t195.5 31.5q152 0 260 -82q23 154 -27.5 236t-197.5 82q-115 0 -305 -62l24 156q201 57 316 57t205 -50t118 -148q70 92 181.5 145t224.5 53q147 0 243.5 -76.5t127.5 -199t2 -267.5h-758q-20 -135 53.5 -228t210.5 -93q182 0 324 199 l127 -80q-90 -129 -216.5 -200t-271.5 -71q-111 0 -201 49.5t-137 141.5q-139 -190 -391 -191q-76 0 -143.5 17.5t-124 53.5t-83 97.5t-14.5 141.5zM268 287q-8 -59 26 -97t83 -51.5t108 -13.5q61 0 117.5 13.5t108 54t61.5 102.5q8 57 -32 96t-92 52.5t-109 13.5 q-90 0 -173 -43t-98 -127zM1008 586h575q0 106 -68.5 179t-174 73t-202.5 -74t-130 -178z" />
<glyph unicode="&#xe7;" horiz-adv-x="974" d="M135 481q35 213 208 360.5t388 147.5q162 0 281 -96l-35 -217h-4q-100 162 -273 162q-147 0 -259.5 -104.5t-136 -252t52 -252t223.5 -104.5q186 0 338 166h4l-33 -219q-162 -98 -322 -99q-219 0 -343 145.5t-89 362.5zM260 -350l244 303l143 -62l-282 -299z" />
<glyph unicode="&#xe8;" horiz-adv-x="1062" d="M143 469q37 223 184.5 371.5t366.5 148.5q111 0 196 -44t128 -119.5t57.5 -174.5t-10.5 -205h-756q-20 -135 53.5 -228t210.5 -93q182 0 324 199l127 -80q-90 -129 -216 -200t-271 -71q-211 0 -318.5 142.5t-75.5 353.5zM338 586h575q0 106 -68.5 179t-174 73t-202.5 -74 t-130 -178zM473 1446l184 78l191 -336l-113 -58z" />
<glyph unicode="&#xe9;" horiz-adv-x="1062" d="M143 469q37 223 184.5 371.5t366.5 148.5q111 0 196 -44t128 -119.5t57.5 -174.5t-10.5 -205h-756q-20 -135 53.5 -228t210.5 -93q182 0 324 199l127 -80q-90 -129 -216 -200t-271 -71q-211 0 -318.5 142.5t-75.5 353.5zM338 586h575q0 106 -68.5 179t-174 73t-202.5 -74 t-130 -178zM596 1188l297 336l160 -78l-365 -316z" />
<glyph unicode="&#xea;" horiz-adv-x="1062" d="M143 469q37 223 184.5 371.5t366.5 148.5q111 0 196 -44t128 -119.5t57.5 -174.5t-10.5 -205h-756q-20 -135 53.5 -228t210.5 -93q182 0 324 199l127 -80q-90 -129 -216 -200t-271 -71q-211 0 -318.5 142.5t-75.5 353.5zM338 586h575q0 106 -68.5 179t-174 73t-202.5 -74 t-130 -178zM408 1237l362 272l281 -272l-133 -92l-179 174l-229 -174z" />
<glyph unicode="&#xeb;" horiz-adv-x="1062" d="M143 469q37 223 184.5 371.5t366.5 148.5q111 0 196 -44t128 -119.5t57.5 -174.5t-10.5 -205h-756q-20 -135 53.5 -228t210.5 -93q182 0 324 199l127 -80q-90 -129 -216 -200t-271 -71q-211 0 -318.5 142.5t-75.5 353.5zM338 586h575q0 106 -68.5 179t-174 73t-202.5 -74 t-130 -178zM431 1333q7 47 44 79t83 32t73.5 -32t20.5 -79t-45 -78.5t-84 -31.5t-72.5 31.5t-19.5 78.5zM834.5 1333q7.5 47 44 79t83 32t74 -32t20.5 -79t-45 -78.5t-84 -31.5t-73 31.5t-19.5 78.5z" />
<glyph unicode="&#xec;" horiz-adv-x="536" d="M186 0l152 963h164l-152 -963h-164zM240 1446l184 78l190 -336l-112 -58z" />
<glyph unicode="&#xed;" horiz-adv-x="536" d="M186 0l152 963h164l-152 -963h-164zM301 1188l297 336l160 -78l-365 -316z" />
<glyph unicode="&#xee;" horiz-adv-x="536" d="M143 1237l363 272l280 -272l-133 -92l-178 174l-229 -174zM186 0l152 963h164l-152 -963h-164z" />
<glyph unicode="&#xef;" horiz-adv-x="536" d="M169 1333q7 47 44 79t83 32t73.5 -32t20.5 -79t-45 -78.5t-84 -31.5t-72.5 31.5t-19.5 78.5zM186 0l152 963h164l-152 -963h-164zM572.5 1333q7.5 47 44 79t82.5 32t74 -32t20.5 -79t-45 -78.5t-84 -31.5t-73 31.5t-19 78.5z" />
<glyph unicode="&#xf0;" horiz-adv-x="1148" d="M145 481q33 201 195 352.5t375 151.5q182 0 299 -131q-49 250 -269 489l-301 -182l-67 84l295 178q-87 89 -228 185l107 94q98 -72 144 -107.5t104 -93.5l313 189l68 -84l-303 -185q25 -27 36 -41t42.5 -55t51 -72.5t49 -86t47 -101.5t37 -113.5t28 -130t8.5 -141.5 t-13 -156q-23 -137 -86 -246.5t-149 -173t-177.5 -96.5t-179.5 -33q-211 0 -334.5 148.5t-91.5 357.5zM311 483q-25 -156 59.5 -256t227.5 -100q147 0 260 104.5t135 251.5q25 145 -54 251t-226 106q-150 0 -263.5 -102.5t-138.5 -254.5z" />
<glyph unicode="&#xf1;" horiz-adv-x="1081" d="M156 0l151 963h164l-18 -117h4q129 143 299 143q94 0 156.5 -33.5t86 -91t28.5 -133.5t-11 -160l-90 -571h-164l86 543q8 55 11 91t-1 79t-21.5 67.5t-53 41t-91.5 16.5q-66 0 -116 -25t-79.5 -59.5t-52 -90t-33 -99.5t-20.5 -107l-72 -457h-163zM385 1284 q55 76 110.5 119t125.5 43q72 0 157 -47q10 -4 34 -16.5t34 -16.5t26.5 -9t30.5 -5q59 0 129 98l84 -78q-41 -72 -106.5 -119t-137.5 -47q-55 0 -145 47q-96 45 -137 45q-27 0 -50.5 -15t-36 -32.5t-30.5 -46.5z" />
<glyph unicode="&#xf2;" horiz-adv-x="1150" d="M145 479q33 213 204 361.5t383 148.5t335 -148.5t90 -361.5q-33 -211 -204 -358.5t-382 -147.5t-334.5 147.5t-91.5 358.5zM309 481q-23 -150 57 -253t229.5 -103t262.5 103.5t135 252.5q25 150 -55 253.5t-229.5 103.5t-262 -103.5t-137.5 -253.5zM516 1446l184 78 l191 -336l-113 -58z" />
<glyph unicode="&#xf3;" horiz-adv-x="1150" d="M145 479q33 213 204 361.5t383 148.5t335 -148.5t90 -361.5q-33 -211 -204 -358.5t-382 -147.5t-334.5 147.5t-91.5 358.5zM309 481q-23 -150 57 -253t229.5 -103t262.5 103.5t135 252.5q25 150 -55 253.5t-229.5 103.5t-262 -103.5t-137.5 -253.5zM639 1188l297 336 l160 -78l-365 -316z" />
<glyph unicode="&#xf4;" horiz-adv-x="1150" d="M145 479q33 213 204 361.5t383 148.5t335 -148.5t90 -361.5q-33 -211 -204 -358.5t-382 -147.5t-334.5 147.5t-91.5 358.5zM309 481q-23 -150 57 -253t229.5 -103t262.5 103.5t135 252.5q25 150 -55 253.5t-229.5 103.5t-262 -103.5t-137.5 -253.5zM451 1237l362 272 l281 -272l-133 -92l-179 174l-229 -174z" />
<glyph unicode="&#xf5;" horiz-adv-x="1150" d="M145 479q33 213 204 361.5t383 148.5t335 -148.5t90 -361.5q-33 -211 -204 -358.5t-382 -147.5t-334.5 147.5t-91.5 358.5zM309 481q-23 -150 57 -253t229.5 -103t262.5 103.5t135 252.5q25 150 -55 253.5t-229.5 103.5t-262 -103.5t-137.5 -253.5zM420 1284 q55 76 110.5 119t124.5 43q72 0 158 -47q10 -4 33.5 -16.5t34 -16.5t27 -9t30.5 -5q59 0 129 98l84 -78q-41 -72 -106.5 -119t-137.5 -47q-55 0 -145 47q-96 45 -137 45q-27 0 -50.5 -15t-36 -32.5t-30.5 -46.5z" />
<glyph unicode="&#xf6;" horiz-adv-x="1150" d="M145 479q33 213 204 361.5t383 148.5t335 -148.5t90 -361.5q-33 -211 -204 -358.5t-382 -147.5t-334.5 147.5t-91.5 358.5zM309 481q-23 -150 57 -253t229.5 -103t262.5 103.5t135 252.5q25 150 -55 253.5t-229.5 103.5t-262 -103.5t-137.5 -253.5zM476 1333q7 47 44 79 t83 32t74 -32t20.5 -79t-45.5 -78.5t-84 -31.5t-72.5 31.5t-19.5 78.5zM879.5 1333q7.5 47 44.5 79t83 32t73.5 -32t20.5 -79t-45 -78.5t-84 -31.5t-73 31.5t-19.5 78.5z" />
<glyph unicode="&#xf7;" d="M205 444l26 160h992l-27 -160h-991zM537 137q6 47 46 82t88 35t76.5 -35t22.5 -82q-8 -49 -48 -83t-88 -34t-77 34t-20 83zM657 911q8 47 48 82t88.5 35t77 -35t20.5 -82q-6 -49 -46 -82.5t-88 -33.5t-77 33.5t-23 82.5z" />
<glyph unicode="&#xf8;" horiz-adv-x="1150" d="M45 23l162 139q-90 137 -62 317q33 213 204 361.5t384 148.5q182 0 301 -112l156 135l67 -78l-157 -137q86 -135 57 -318q-33 -211 -204 -358.5t-382 -147.5q-178 0 -299 109l-159 -139zM309 481q-18 -115 27 -207l569 492q-76 72 -196 72q-150 0 -262.5 -103.5 t-137.5 -253.5zM401 193q74 -68 195 -68q150 0 262.5 103.5t134.5 252.5q19 117 -26 201z" />
<glyph unicode="&#xf9;" horiz-adv-x="1048" d="M209 408l86 555h164l-84 -537q-8 -55 -11.5 -94t3 -81t25 -67.5t56 -42t97.5 -16.5q72 0 121 22.5t76.5 68.5t41 92t25.5 118l84 537h164l-86 -555q-70 -434 -451 -434.5t-311 434.5zM465 1446l184 78l191 -336l-113 -58z" />
<glyph unicode="&#xfa;" horiz-adv-x="1048" d="M209 408l86 555h164l-84 -537q-8 -55 -11.5 -94t3 -81t25 -67.5t56 -42t97.5 -16.5q72 0 121 22.5t76.5 68.5t41 92t25.5 118l84 537h164l-86 -555q-70 -434 -451 -434.5t-311 434.5zM588 1188l297 336l159 -78l-364 -316z" />
<glyph unicode="&#xfb;" horiz-adv-x="1048" d="M209 408l86 555h164l-84 -537q-8 -55 -11.5 -94t3 -81t25 -67.5t56 -42t97.5 -16.5q72 0 121 22.5t76.5 68.5t41 92t25.5 118l84 537h164l-86 -555q-70 -434 -451 -434.5t-311 434.5zM399 1237l363 272l280 -272l-133 -92l-178 174l-229 -174z" />
<glyph unicode="&#xfc;" horiz-adv-x="1048" d="M209 408l86 555h164l-84 -537q-8 -55 -11.5 -94t3 -81t25 -67.5t56 -42t97.5 -16.5q72 0 121 22.5t76.5 68.5t41 92t25.5 118l84 537h164l-86 -555q-70 -434 -451 -434.5t-311 434.5zM425 1333q7 47 44 79t83 32t73.5 -32t20.5 -79t-45 -78.5t-84 -31.5t-72.5 31.5 t-19.5 78.5zM828.5 1333q7.5 47 44 79t82.5 32t74 -32t20.5 -79t-45 -78.5t-84 -31.5t-73 31.5t-19 78.5z" />
<glyph unicode="&#xfd;" horiz-adv-x="1019" d="M41 -541l412 631l-306 873h191l231 -691l420 691h187l-949 -1504h-186zM614 1188l297 336l160 -78l-364 -316z" />
<glyph unicode="&#xfe;" horiz-adv-x="1181" d="M61 -541l355 2231h164l-138 -865h4q150 164 359 164q135 0 230 -72.5t132 -187.5t17 -250q-33 -213 -182.5 -359.5t-360.5 -146.5q-98 0 -178 42t-127 120h-4l-107 -676h-164zM381 492q-25 -150 43 -258.5t215 -108.5q152 0 253 105.5t126 258.5q23 150 -49 249.5 t-219 99.5q-139 0 -243 -102.5t-126 -243.5z" />
<glyph unicode="&#xff;" horiz-adv-x="1019" d="M41 -541l412 631l-306 873h191l231 -691l420 691h187l-949 -1504h-186zM421 1333q7 47 44 79t83 32t73.5 -32t20.5 -79t-45 -78.5t-84 -31.5t-72.5 31.5t-19.5 78.5zM824 1333q7 47 44 79t83 32t74 -32t20.5 -79t-45 -78.5t-84 -31.5t-73 31.5t-19.5 78.5z" />
<glyph unicode="&#x152;" horiz-adv-x="2437" d="M201 770q33 217 171 401.5t340.5 292t417.5 107.5q184 0 331 -87t225 -243h4l47 303h807l-25 -160h-635l-72 -458h617l-27 -160h-616l-96 -606h634l-24 -160h-807l47 297h-4q-123 -154 -299 -240t-358 -84q-217 0 -386 105.5t-248 290t-44 401.5zM373 772 q-29 -172 32.5 -318.5t193.5 -233.5t304 -87q262 0 477 188.5t258 450.5q27 172 -33.5 319.5t-192.5 233.5t-306 86q-264 0 -478 -187.5t-255 -451.5z" />
<glyph unicode="&#x153;" horiz-adv-x="1925" d="M145 479q33 213 204 361.5t384 148.5q135 -4 241.5 -65.5t145.5 -167.5q74 109 188.5 169t243.5 64q147 0 245.5 -76.5t129.5 -199t0 -267.5h-760q-20 -135 53.5 -228t211.5 -93q182 0 323 199l127 -80q-90 -129 -216 -200t-271 -71q-121 0 -223.5 62.5t-137.5 167.5 q-80 -109 -207 -169.5t-256 -60.5q-211 0 -334.5 147.5t-91.5 358.5zM313 481q-23 -150 57.5 -253t230 -103t262 103.5t134.5 252.5q25 150 -55 253.5t-229.5 103.5t-262 -103.5t-137.5 -253.5zM1202 586h576q0 106 -69 179t-174 73t-202.5 -74t-130.5 -178z" />
<glyph unicode="&#x178;" horiz-adv-x="1214" d="M260 1544h199l284 -688l502 688h199l-645 -880l-105 -664h-172l105 664zM615.5 1865q7.5 46 44 77.5t82.5 31.5t74 -32.5t20.5 -78.5t-45 -78t-83.5 -32t-73 33t-19.5 79zM1019 1865q7 46 44 77.5t83 31.5t73.5 -32.5t20.5 -78.5t-45 -78t-84 -32t-72.5 33t-19.5 79z" />
<glyph unicode="&#x2c6;" horiz-adv-x="962" d="M356 1237l363 272l280 -272l-133 -92l-178 174l-229 -174z" />
<glyph unicode="&#x2dc;" horiz-adv-x="1036" d="M362 1284q55 76 110.5 119t125.5 43q72 0 158 -47q10 -4 33.5 -16.5t34 -16.5t26.5 -9t31 -5q59 0 129 98l84 -78q-41 -72 -106.5 -119t-137.5 -47q-55 0 -145 47q-96 45 -138 45q-27 0 -50 -15t-35.5 -32.5t-30.5 -46.5z" />
<glyph unicode="&#x2000;" horiz-adv-x="1030" />
<glyph unicode="&#x2001;" horiz-adv-x="2060" />
<glyph unicode="&#x2002;" horiz-adv-x="1030" />
<glyph unicode="&#x2003;" horiz-adv-x="2060" />
<glyph unicode="&#x2004;" horiz-adv-x="686" />
<glyph unicode="&#x2005;" horiz-adv-x="515" />
<glyph unicode="&#x2006;" horiz-adv-x="343" />
<glyph unicode="&#x2007;" horiz-adv-x="343" />
<glyph unicode="&#x2008;" horiz-adv-x="257" />
<glyph unicode="&#x2009;" horiz-adv-x="412" />
<glyph unicode="&#x200a;" horiz-adv-x="114" />
<glyph unicode="&#x2010;" horiz-adv-x="425" d="M70 418l24 151h420l-25 -151h-419z" />
<glyph unicode="&#x2011;" horiz-adv-x="425" d="M70 418l24 151h420l-25 -151h-419z" />
<glyph unicode="&#x2012;" horiz-adv-x="425" d="M70 418l24 151h420l-25 -151h-419z" />
<glyph unicode="&#x2013;" horiz-adv-x="1024" d="M66 418l24 151h1024l-24 -151h-1024z" />
<glyph unicode="&#x2014;" horiz-adv-x="2048" d="M332 418l24 151h1516l-25 -151h-1515z" />
<glyph unicode="&#x2018;" horiz-adv-x="591" d="M291 1049l315 522l105 -43l-277 -535z" />
<glyph unicode="&#x2019;" horiz-adv-x="591" d="M287 1036l276 535l144 -55l-316 -523z" />
<glyph unicode="&#x201a;" horiz-adv-x="591" d="M76 -307l276 532l144 -53l-316 -524z" />
<glyph unicode="&#x201c;" horiz-adv-x="935" d="M291 1049l315 522l105 -43l-277 -535zM635 1049l315 522l105 -43l-277 -535z" />
<glyph unicode="&#x201d;" horiz-adv-x="935" d="M289 1036l276 535l144 -55l-316 -523zM633 1036l276 535l144 -55l-316 -523z" />
<glyph unicode="&#x201e;" horiz-adv-x="950" d="M76 -307l276 532l144 -53l-316 -524zM434 -307l277 532l143 -53l-315 -524z" />
<glyph unicode="&#x2022;" horiz-adv-x="1212" d="M344 772q23 162 154 274.5t291.5 112.5t256 -112.5t70.5 -274.5q-27 -160 -158 -272.5t-290.5 -112.5t-255 112.5t-68.5 272.5z" />
<glyph unicode="&#x2026;" horiz-adv-x="2048" d="M244 90q8 47 47 80t86 33t75.5 -33t20.5 -80t-47 -82t-86 -35t-75.5 35t-20.5 82zM924 90q8 47 47 80t86 33t75.5 -33t20.5 -80t-47 -82t-86 -35t-76 35t-20 82zM1604 90q8 47 47 80t86 33t75.5 -33t20.5 -80t-47 -82t-86 -35t-76 35t-20 82z" />
<glyph unicode="&#x202f;" horiz-adv-x="412" />
<glyph unicode="&#x2039;" horiz-adv-x="675" d="M162 492l413 436l95 -86l-332 -350l223 -340l-123 -84z" />
<glyph unicode="&#x203a;" horiz-adv-x="675" d="M164 152l330 340l-222 350l123 86l275 -436l-412 -424z" />
<glyph unicode="&#x205f;" horiz-adv-x="515" />
<glyph unicode="&#x20ac;" d="M88 571h148q4 -268 137 -424q150 -172 434 -172q207 0 373 88l28 185q-123 -74 -182 -90q-74 -25 -201 -25q-205 0 -309 131q-94 113 -104 307h649l53 111h-700q4 61 10 90l6 37h737l52 111h-762q68 213 202 342q154 150 365 149q133 0 203 -27q61 -25 145 -98l66 154 q-133 131 -379 131q-291 0 -502 -193q-186 -174 -272 -458h-109l-49 -111h131l-8 -43q-8 -57 -10 -84h-101z" />
<glyph unicode="&#x2122;" horiz-adv-x="1925" d="M299 1421l18 123h699l-19 -123h-286l-117 -739h-123l117 739h-289zM1047 682l135 862h207l149 -620l354 620h205l-135 -862h-123l117 739h-4l-412 -739h-80l-170 739h-4l-117 -739h-122z" />
<glyph unicode="&#x25fc;" horiz-adv-x="962" d="M0 0v963h963v-963h-963z" />
<glyph unicode="&#xfb01;" horiz-adv-x="1062" d="M145 0l129 811h-90l23 152h90l61 383q29 180 82 249q94 121 269 121q51 0 112 -20l-26 -166q-63 23 -107 22q-39 0 -66.5 -13t-44 -29.5t-29.5 -56.5t-18.5 -69.5t-15.5 -95.5l-53 -325h244l-23 -152h-244l-129 -811h-164zM713 0l151 963h164l-151 -963h-164zM887 1325 q8 47 48 82t88 35t76.5 -35t20.5 -82q-6 -49 -46 -83t-88 -34t-76.5 34t-22.5 83z" />
<glyph unicode="&#xfb02;" horiz-adv-x="1026" d="M145 0l129 811h-90l23 152h90l61 383q29 180 82 249q94 121 269 121q51 0 112 -20l-26 -166q-63 23 -107 22q-39 0 -66.5 -13t-44 -29.5t-29.5 -56.5t-18.5 -69.5t-15.5 -95.5l-53 -325h244l-23 -152h-244l-129 -811h-164zM713 0l268 1690h164l-268 -1690h-164z" />
</font>
</defs>
</svg>
